<svg xmlns="http://www.w3.org/2000/svg" width="197.417" height="197.417" viewBox="0 0 197.417 197.417"><defs><style>.a{fill:#f0f2f5;}.b,.i{fill:#fff;}.c{fill:#e3e0e4;}.d{fill:#a29aa5;}.e{fill:#80e29e;}.f{fill:#77d192;}.g{fill:#f9f8f9;}.h{fill:#ce8b3d;}.i{font-size:32px;font-family:HelveticaNeue-Medium, Helvetica Neue;font-weight:500;}</style></defs><g transform="translate(-693.561 -4909)"><g transform="translate(693.561 4909)"><circle class="a" cx="98.708" cy="98.708" r="98.708" transform="translate(0)"/><g transform="translate(51.438 39.015)"><path class="b" d="M1152.813,378.082v64.256a9.738,9.738,0,0,1-9.738,9.737H1076.13a9.737,9.737,0,0,1-9.737-9.737V352.753a9.737,9.737,0,0,1,9.737-9.738h41.676a7.305,7.305,0,0,1,5.17,2.145l27.7,27.763a7.3,7.3,0,0,1,2.134,5.159Z" transform="translate(-1066.393 -343.015)"/><path class="c" d="M1152.813,378.082v4.282h-25.4a13.909,13.909,0,0,1-13.886-13.9V343.015h4.275a7.306,7.306,0,0,1,5.168,2.145l27.705,27.764A7.3,7.3,0,0,1,1152.813,378.082Z" transform="translate(-1066.393 -343.015)"/><path class="c" d="M1083.433,452.075h-7.3a9.738,9.738,0,0,1-9.737-9.737V352.753a9.738,9.738,0,0,1,9.737-9.738h7.3a9.738,9.738,0,0,0-9.737,9.738v89.585A9.738,9.738,0,0,0,1083.433,452.075Z" transform="translate(-1066.393 -343.015)"/><g transform="translate(11.662 0.662)"><path class="d" d="M1110.481,379.531h-30.113a1.826,1.826,0,1,1,0-3.652h30.113a1.826,1.826,0,1,1,0,3.652Z" transform="translate(-1078.055 -343.677)"/><path class="d" d="M1110.481,423.35h-30.113a1.826,1.826,0,1,1,0-3.652h30.113a1.826,1.826,0,1,1,0,3.652Z" transform="translate(-1078.055 -343.677)"/><path class="d" d="M1134.411,394.137h-54.53a1.826,1.826,0,0,1,0-3.652h54.53a1.826,1.826,0,1,1,0,3.652Z" transform="translate(-1078.055 -343.677)"/><path class="d" d="M1134.411,408.743h-54.53a1.826,1.826,0,1,1,0-3.651h54.53a1.826,1.826,0,1,1,0,3.651Z" transform="translate(-1078.055 -343.677)"/><path class="d" d="M1152.158,375.061h-24.74a6.591,6.591,0,0,1-6.583-6.6V343.677a7.2,7.2,0,0,1,2.14,1.483l27.705,27.764A7.257,7.257,0,0,1,1152.158,375.061Z" transform="translate(-1078.055 -343.677)"/></g><circle class="e" cx="24.712" cy="24.712" r="24.712" transform="translate(56.472 71.568)"/><path class="f" d="M1167.315,454.161a24.711,24.711,0,1,1-34.608-34.6,24.711,24.711,0,0,0,34.608,34.6Z" transform="translate(-1066.393 -343.015)"/><path class="g" d="M1158.6,432.569l-9.251-5.112a3.688,3.688,0,0,0-1.763-.456h0a3.641,3.641,0,0,0-1.77.456l-9.251,5.112a3.652,3.652,0,1,0,3.533,6.392l3.832-2.118v11.094a3.652,3.652,0,0,0,7.3,0V436.843l3.833,2.118a3.651,3.651,0,1,0,3.532-6.392Z" transform="translate(-1066.393 -343.015)"/></g></g><circle class="h" cx="20.5" cy="20.5" r="20.5" transform="translate(703 4909)"/><text class="i" transform="translate(732 4940)"><tspan x="-17.792" y="0">2</tspan></text></g></svg>