<svg xmlns="http://www.w3.org/2000/svg" width="197.417" height="197.417" viewBox="0 0 197.417 197.417"><defs><style>.a{fill:#f0f2f5;}.b,.g{fill:#fff;}.c{fill:#80e29e;}.d{fill:#a29aa5;}.e{fill:#77d192;}.f{fill:#ce8b3d;}.g{font-size:32px;font-family:HelveticaNeue-Medium, Helvetica Neue;font-weight:500;}</style></defs><g transform="translate(-1363.585 -4909)"><g transform="translate(1363.585 4909)"><path class="a" d="M98.708,0A98.708,98.708,0,1,1,0,98.708,98.708,98.708,0,0,1,98.708,0Z"/><g transform="translate(42.136 56.165)"><g transform="translate(0 1.536)"><path class="b" d="M1546.5,789.284l-56.494,22.161-56.5-22.161a4.008,4.008,0,0,0-.468,1.8v73.428a3.306,3.306,0,0,0,3.338,3.337h30.595a3.255,3.255,0,0,0,3.271-2.8,20,20,0,0,1,39.518,0,3.255,3.255,0,0,0,3.271,2.8h30.594a3.306,3.306,0,0,0,3.338-3.337V791.086A4.007,4.007,0,0,0,1546.5,789.284Zm-41.729,68.928a6.561,6.561,0,0,0-9.44-.068l-8.676,8.621-1.91-1.877a6.639,6.639,0,1,0-9.446,9.331l6.551,6.545a6.461,6.461,0,0,0,4.818,2.109,6.353,6.353,0,0,0,4.693-1.979l13.286-13.288a6.553,6.553,0,0,0,.124-9.394Z" transform="translate(-1433.045 -789.284)"/></g><g transform="translate(0.468)"><path class="c" d="M1492.01,829.97l54.492-40.686a3.483,3.483,0,0,0-2.87-1.536H1436.383a3.484,3.484,0,0,0-2.87,1.536l54.492,40.686a3.337,3.337,0,0,0,4.005,0Zm-2,11.514a26.75,26.75,0,0,0-26.3,22.295,22.364,22.364,0,0,0-.4,4.406,26.7,26.7,0,1,0,53.4,0,19.364,19.364,0,0,0-.4-4.205,26.742,26.742,0,0,0-26.3-22.5Zm13.349,23.7-13.351,13.351a3.226,3.226,0,0,1-4.672,0l-6.675-6.675a3.3,3.3,0,0,1,4.672-4.673l4.339,4.272,11.015-10.947a3.3,3.3,0,0,1,4.672,4.672Z" transform="translate(-1433.513 -787.748)"/></g><path class="d" d="M1492.01,829.97l54.492-40.686a3.483,3.483,0,0,0-2.87-1.536H1436.383a3.484,3.484,0,0,0-2.87,1.536l54.492,40.686a3.337,3.337,0,0,0,4.005,0Z" transform="translate(-1433.045 -787.748)"/><path class="e" d="M1510.635,885.144a27.3,27.3,0,0,1-38.783-36.457,25.989,25.989,0,0,0-8.145,15.092,22.364,22.364,0,0,0-.4,4.406,26.7,26.7,0,0,0,47.328,16.959Z" transform="translate(-1433.045 -787.748)"/></g></g><circle class="f" cx="20.5" cy="20.5" r="20.5" transform="translate(1373 4909)"/><text class="g" transform="translate(1402 4940)"><tspan x="-17.792" y="0">4</tspan></text></g></svg>