<svg xmlns="http://www.w3.org/2000/svg" width="197.417" height="197.417" viewBox="0 0 197.417 197.417"><defs><style>.a{fill:#f0f2f5;}.b{fill:#666;}.c,.m{fill:#fff;}.d{fill:#e3e0e4;}.e{fill:#a29aa5;}.f{fill:#80e29e;}.g{fill:#77d192;}.h{fill:#61aff6;}.i{fill:#49a0e8;}.j{fill:#e8eded;}.k{fill:#908993;}.l{fill:#ce8b3d;}.m{font-size:32px;font-family:HelveticaNeue-Medium, Helvetica Neue;font-weight:500;}</style></defs><g transform="translate(-1028 -4909)"><g transform="translate(1028 4909)"><path class="a" d="M98.708,0A98.708,98.708,0,1,1,0,98.708,98.708,98.708,0,0,1,98.708,0Z" transform="translate(0)"/><g transform="translate(44.325 42.917)"><g transform="translate(11.332 49.105)"><path class="b" d="M1475.785,418.686h-3.778v-7.554a11.332,11.332,0,1,0-22.664,0v7.554h-3.777v-7.554a15.109,15.109,0,1,1,30.219,0Z" transform="translate(-1445.566 -396.022)"/><path class="b" d="M1532.445,418.686h-3.777v-7.554a11.332,11.332,0,1,0-22.664,0v7.554h-3.778v-7.554a15.109,15.109,0,1,1,30.219,0Z" transform="translate(-1445.566 -396.022)"/></g><path class="c" d="M1495.79,380.645a20.718,20.718,0,0,0,0-25.9,13.167,13.167,0,0,0-6.784,3.709,13.226,13.226,0,0,1-6.785,22.2,13.3,13.3,0,0,1-2.659.268h-24.553a13.221,13.221,0,0,1,0-26.442h24.553a13.234,13.234,0,0,1,2.659.269,20.83,20.83,0,0,1,6.785-5.538,20.665,20.665,0,0,0-9.444-2.285h-24.553a20.775,20.775,0,0,0,0,41.551h24.553a20.837,20.837,0,0,0,16.228-7.823Z" transform="translate(-1434.234 -346.917)"/><path class="d" d="M1498.062,358.288a20.9,20.9,0,0,0-2.272-3.548,13.167,13.167,0,0,0-6.784,3.709,13.3,13.3,0,0,1,2.283,3.156c.144-.168.259-.355.414-.514a9.393,9.393,0,0,1,4.838-2.65A9.548,9.548,0,0,1,1498.062,358.288Z" transform="translate(-1434.234 -346.917)"/><path class="e" d="M1523,346.917h-24.553a20.762,20.762,0,0,0-16.228,33.728,13.2,13.2,0,0,0,6.785-3.71,13.214,13.214,0,0,1,9.443-22.464H1523a13.221,13.221,0,1,1,0,26.442h-24.553a13.313,13.313,0,0,1-2.659-.268,20.846,20.846,0,0,1-6.784,5.537,20.662,20.662,0,0,0,9.443,2.286H1523a20.775,20.775,0,0,0,0-41.551Z" transform="translate(-1434.234 -346.917)"/><path class="f" d="M1477.674,416.8h-34a7.554,7.554,0,0,0-7.554,7.554v26.442a7.555,7.555,0,0,0,7.554,7.555h34a7.555,7.555,0,0,0,7.554-7.555V424.352A7.554,7.554,0,0,0,1477.674,416.8Z" transform="translate(-1434.234 -346.917)"/><path class="g" d="M1477.674,416.8h-17v41.551h17a7.555,7.555,0,0,0,7.554-7.555V424.352A7.554,7.554,0,0,0,1477.674,416.8Z" transform="translate(-1434.234 -346.917)"/><path class="h" d="M1534.334,416.8h-34a7.555,7.555,0,0,0-7.555,7.554v26.442a7.556,7.556,0,0,0,7.555,7.555h34a7.556,7.556,0,0,0,7.555-7.555V424.352A7.555,7.555,0,0,0,1534.334,416.8Z" transform="translate(-1434.234 -346.917)"/><path class="i" d="M1534.334,416.8h-17v41.551h17a7.556,7.556,0,0,0,7.555-7.555V424.352A7.555,7.555,0,0,0,1534.334,416.8Z" transform="translate(-1434.234 -346.917)"/><g transform="translate(18.887 79.324)"><path class="j" d="M1456.9,440.3v8.6h7.555v-8.6a7.555,7.555,0,1,0-7.555,0Z" transform="translate(-1453.121 -426.241)"/><path class="j" d="M1513.558,440.3v8.6h7.555v-8.6a7.555,7.555,0,1,0-7.555,0Z" transform="translate(-1453.121 -426.241)"/></g><path class="k" d="M1500.226,380.913h-1.777a13.313,13.313,0,0,1-2.659-.268,20.846,20.846,0,0,1-6.784,5.537,20.759,20.759,0,0,0,4.489,1.681,24.389,24.389,0,0,0,5.245-4.857A25.575,25.575,0,0,0,1500.226,380.913Z" transform="translate(-1434.234 -346.917)"/><g transform="translate(24.553 41.551)"><rect class="b" width="3.777" height="9.443"/><rect class="b" width="3.777" height="9.443" transform="translate(56.66)"/><rect class="b" width="3.777" height="3.777" transform="translate(15.109 58.549)"/><rect class="b" width="3.777" height="3.777" transform="translate(71.77 58.549)"/></g></g></g><circle class="l" cx="20.5" cy="20.5" r="20.5" transform="translate(1037 4909)"/><text class="m" transform="translate(1067 4940)"><tspan x="-17.792" y="0">3</tspan></text></g></svg>