<svg xmlns="http://www.w3.org/2000/svg" width="197.417" height="197.417" viewBox="0 0 197.417 197.417"><defs><style>.a{fill:#f0f2f5;}.b{fill:#e3e0e4;}.c{fill:#a29aa5;}.d,.m{fill:#fff;}.e{fill:#f4f4f4;}.f{fill:#61aff6;}.g{fill:#49a0e8;}.h{fill:#80e29e;}.i{fill:#77d192;}.j{fill:#ffb125;}.k{fill:#ff901d;}.l{fill:#ce8b3d;}.m{font-size:32px;font-family:HelveticaNeue-Medium, Helvetica Neue;font-weight:500;}</style></defs><g transform="translate(-359.048 -4909)"><g transform="translate(359.048 4909)"><circle class="a" cx="98.708" cy="98.708" r="98.708"/><g transform="translate(38.168 59)"><path class="b" d="M798.279,447.038H683.423a3.255,3.255,0,0,1-3.255-3.256V366.255A3.255,3.255,0,0,1,683.423,363H798.279a3.255,3.255,0,0,1,3.255,3.255v77.527A3.256,3.256,0,0,1,798.279,447.038Z" transform="translate(-680.168 -363)"/><path class="c" d="M798.279,363h-7.648v76.139a3.255,3.255,0,0,1-3.255,3.255H680.168v1.388a3.255,3.255,0,0,0,3.255,3.256H798.279a3.256,3.256,0,0,0,3.255-3.256V366.255A3.255,3.255,0,0,0,798.279,363Z" transform="translate(-680.168 -363)"/><path class="d" d="M792.31,429.125h0a.429.429,0,0,0,.433-.426v-47.36a.429.429,0,0,0-.433-.427h0a8.763,8.763,0,0,1-8.754-8.362.423.423,0,0,0-.425-.4h-85a.423.423,0,0,0-.425.4,8.763,8.763,0,0,1-8.353,8.353.425.425,0,0,0-.4.425v47.381a.424.424,0,0,0,.4.425,8.764,8.764,0,0,1,8.353,8.353.423.423,0,0,0,.425.4h85a.423.423,0,0,0,.425-.4A8.763,8.763,0,0,1,792.31,429.125Z" transform="translate(-680.168 -363)"/><path class="e" d="M792.314,380.912h0a8.763,8.763,0,0,1-8.754-8.362.423.423,0,0,0-.425-.4h-11a.423.423,0,0,1,.425.4,8.762,8.762,0,0,0,8.754,8.362h0a.429.429,0,0,1,.432.427V428.7a.429.429,0,0,1-.432.427h0a8.763,8.763,0,0,0-8.754,8.362.424.424,0,0,1-.425.4h11a.423.423,0,0,0,.425-.4,8.763,8.763,0,0,1,8.754-8.362h0a.429.429,0,0,0,.433-.427V381.339A.43.43,0,0,0,792.314,380.912Z" transform="translate(-680.168 -363)"/><path class="f" d="M769.41,460.54l-3.349-5.5a.344.344,0,0,0-.349-.16l-6.058.974a.344.344,0,0,1-.365-.489l9.046-18.956,10.735,5.123-9.055,18.975A.345.345,0,0,1,769.41,460.54Z" transform="translate(-680.168 -363)"/><path class="g" d="M783.757,460.54l3.349-5.5a.344.344,0,0,1,.349-.16l6.058.974a.345.345,0,0,0,.366-.489l-9.047-18.956L774.1,441.534l9.055,18.975A.344.344,0,0,0,783.757,460.54Z" transform="translate(-680.168 -363)"/><path class="h" d="M779.3,414.407h0a4.7,4.7,0,0,0,3.163.847h0a4.7,4.7,0,0,1,4.713,2.721h0a4.7,4.7,0,0,0,2.316,2.316h0a4.694,4.694,0,0,1,2.72,4.712h0a4.7,4.7,0,0,0,.848,3.163h0a4.7,4.7,0,0,1,0,5.442h0a4.7,4.7,0,0,0-.848,3.163h0a4.693,4.693,0,0,1-2.72,4.712h0a4.7,4.7,0,0,0-2.316,2.316h0a4.7,4.7,0,0,1-4.713,2.721h0a4.7,4.7,0,0,0-3.163.847h0a4.7,4.7,0,0,1-5.441,0h0a4.7,4.7,0,0,0-3.163-.847h0a4.7,4.7,0,0,1-4.713-2.721h0a4.7,4.7,0,0,0-2.315-2.316h0a4.694,4.694,0,0,1-2.721-4.712h0a4.7,4.7,0,0,0-.848-3.163h0a4.7,4.7,0,0,1,0-5.442h0a4.7,4.7,0,0,0,.848-3.163h0a4.7,4.7,0,0,1,2.721-4.712h0a4.7,4.7,0,0,0,2.315-2.316h0a4.7,4.7,0,0,1,4.713-2.721h0a4.7,4.7,0,0,0,3.163-.847h0A4.7,4.7,0,0,1,779.3,414.407Z" transform="translate(-680.168 -363)"/><g transform="translate(90.357 50.539)"><path class="i" d="M770.525,446.529c.059,0,.116,0,.175-.009h0c.128-.012.257-.018.385-.019A4.544,4.544,0,0,0,770.525,446.529Z" transform="translate(-770.525 -413.539)"/><path class="i" d="M771.085,415.274c-.128,0-.257-.007-.385-.02h0c-.059-.005-.116-.006-.175-.009A4.744,4.744,0,0,0,771.085,415.274Z" transform="translate(-770.525 -413.539)"/><path class="i" d="M793.064,428.166a4.7,4.7,0,0,1-.848-3.163,4.694,4.694,0,0,0-2.72-4.712,4.7,4.7,0,0,1-2.316-2.316h0a4.7,4.7,0,0,0-4.713-2.721,4.7,4.7,0,0,1-3.163-.847,4.7,4.7,0,0,0-5.441,0h0a4.71,4.71,0,0,1-2.219.838,4.692,4.692,0,0,1,4.538,2.73h0a4.7,4.7,0,0,0,2.316,2.316A4.694,4.694,0,0,1,781.219,425a4.7,4.7,0,0,0,.848,3.163,4.7,4.7,0,0,1,0,5.442,4.7,4.7,0,0,0-.848,3.163,4.694,4.694,0,0,1-2.721,4.712,4.7,4.7,0,0,0-2.316,2.316h0a4.692,4.692,0,0,1-4.538,2.73,4.706,4.706,0,0,1,2.219.838h0a4.7,4.7,0,0,0,5.441,0h0a4.692,4.692,0,0,1,3.163-.847,4.7,4.7,0,0,0,4.713-2.721h0a4.7,4.7,0,0,1,2.316-2.316,4.7,4.7,0,0,0,2.72-4.712,4.7,4.7,0,0,1,.848-3.164A4.7,4.7,0,0,0,793.064,428.166Z" transform="translate(-770.525 -413.539)"/></g><circle class="j" cx="9.555" cy="9.555" r="9.555" transform="translate(86.727 58.332)"/><path class="k" d="M776.45,421.332a9.514,9.514,0,0,0-5.977,2.1,9.551,9.551,0,0,1,0,14.906,9.554,9.554,0,1,0,5.977-17.008Z" transform="translate(-680.168 -363)"/><g transform="translate(23.251 19.827)"><path class="c" d="M776.45,392.765h-71.2a1.833,1.833,0,1,0,0,3.666h71.2a1.833,1.833,0,1,0,0-3.666Z" transform="translate(-703.419 -382.827)"/><path class="c" d="M776.45,382.827h-71.2a1.833,1.833,0,1,0,0,3.665h71.2a1.833,1.833,0,1,0,0-3.665Z" transform="translate(-703.419 -382.827)"/><path class="c" d="M776.45,402.785h-71.2a1.833,1.833,0,1,0,0,3.666h71.2a1.833,1.833,0,1,0,0-3.666Z" transform="translate(-703.419 -382.827)"/><path class="c" d="M753.108,415.738H728.593a1.833,1.833,0,0,0,0,3.665h24.515a1.833,1.833,0,1,0,0-3.665Z" transform="translate(-703.419 -382.827)"/></g></g></g><circle class="l" cx="20.5" cy="20.5" r="20.5" transform="translate(368 4909)"/><text class="m" transform="translate(397 4940)"><tspan x="-17.792" y="0">1</tspan></text></g></svg>