<?xml version="1.0" encoding="utf-8"?>
<!-- Generator: Adobe Illustrator 25.2.3, SVG Export Plug-In . SVG Version: 6.00 Build 0)  -->
<svg version="1.1" id="圖層_1" xmlns="http://www.w3.org/2000/svg" xmlns:xlink="http://www.w3.org/1999/xlink" x="0px" y="0px"
	 viewBox="0 0 660 160" style="enable-background:new 0 0 660 160;" xml:space="preserve">
<style type="text/css">
	.st0{fill:#9D1F24;}
	.st1{fill:none;}
	.st2{fill:#780200;}
	.st3{fill:#A80100;}
	.st4{fill:url(#Path_139_1_);}
	.st5{fill:url(#Path_140_1_);}
	.st6{fill:url(#Rectangle_139_1_);}
	.st7{fill-rule:evenodd;clip-rule:evenodd;fill:#FFFFFF;}
</style>
<g>
	<g>
		<g>
			<path class="st0" d="M239.3,57.4v6.9h-18v50.3h-8V64.4h-18v-6.9L239.3,57.4L239.3,57.4z"/>
			<path class="st0" d="M280.9,113.4c-1.8,0.4-4.1,0.9-7,1.4s-6.2,0.7-10,0.7c-3.3,0-6.1-0.5-8.3-1.4c-2.2-0.9-4.1-2.3-5.4-4.1
				c-1.4-1.8-2.4-3.8-3-6.2c-0.6-2.4-0.9-5.1-0.9-8V71.7h7.7v22.5c0,5.2,0.8,9,2.5,11.2c1.7,2.3,4.4,3.4,8.3,3.4
				c0.8,0,1.7,0,2.6-0.1s1.7-0.1,2.5-0.2s1.5-0.2,2.1-0.2c0.6-0.1,1.1-0.2,1.4-0.3V71.7h7.7L280.9,113.4z"/>
			<path class="st0" d="M310,70.8c0.7,0,1.4,0,2.3,0.1s1.7,0.2,2.5,0.3c0.8,0.1,1.6,0.3,2.3,0.4c0.5,0.1,1,0.2,1.5,0.4l-1.3,6.7
				c-0.6-0.2-1.6-0.5-3-0.8s-3.2-0.5-5.4-0.5c-1.4,0-2.9,0.2-4.3,0.5s-2.3,0.5-2.8,0.6v36.1h-7.7V73.5c1.8-0.7,4.1-1.3,6.8-1.9
				S306.6,70.8,310,70.8z"/>
			<path class="st0" d="M330.2,64c-1.4,0-2.5-0.5-3.5-1.4s-1.4-2.1-1.4-3.7c0-1.5,0.5-2.8,1.4-3.7c1-0.9,2.1-1.4,3.5-1.4
				s2.5,0.5,3.5,1.4s1.4,2.1,1.4,3.7c0,1.5-0.5,2.8-1.4,3.7C332.7,63.5,331.5,64,330.2,64z M334,114.7h-7.7v-43h7.7V114.7z"/>
			<path class="st0" d="M347.3,73c1.8-0.4,4.1-0.9,7-1.4s6.3-0.7,10.1-0.7c3.4,0,6.3,0.5,8.5,1.4c2.3,1,4.1,2.3,5.4,4
				s2.3,3.8,2.8,6.2c0.6,2.4,0.8,5.1,0.8,8v24.1h-7.7V92.2c0-2.6-0.2-4.9-0.5-6.8c-0.4-1.9-0.9-3.4-1.8-4.5c-0.8-1.2-2-2-3.3-2.5
				c-1.4-0.5-3.1-0.8-5.1-0.8c-0.8,0-1.7,0-2.6,0.1s-1.7,0.1-2.5,0.2s-1.5,0.2-2.1,0.3c-0.6,0.1-1.1,0.2-1.4,0.2v36.3h-7.7V73H347.3
				z"/>
			<path class="st0" d="M421.6,110.4c-0.7,0.4-1.9,1-3.8,1.7s-4.1,1-6.6,1s-5-0.4-7.3-1.2c-2.3-0.8-4.3-2.1-6-3.8
				c-1.7-1.7-3.1-3.9-4-6.5c-1-2.6-1.5-5.7-1.5-9.3c0-3.1,0.5-6,1.4-8.6s2.3-4.9,4.1-6.8c1.8-1.9,4-3.4,6.6-4.5s5.5-1.6,8.8-1.6
				c3.6,0,6.7,0.3,9.4,0.8c2.7,0.5,4.9,1,6.7,1.4v38.3c0,6.6-1.7,11.4-5.1,14.4c-3.4,3-8.6,4.5-15.5,4.5c-2.6,0-5.1-0.2-7.6-0.7
				c-2.4-0.4-4.5-1-6.2-1.6l1.4-6.7c1.5,0.6,3.4,1.1,5.7,1.6c2.3,0.5,4.6,0.7,7,0.7c4.6,0,7.9-0.9,9.9-2.7c2-1.8,3-4.7,3-8.7
				L421.6,110.4z M421.5,78.5c-1-0.3-2.1-0.5-3.1-0.6c-1.3-0.2-3-0.3-5.2-0.3c-4.1,0-7.3,1.3-9.5,4s-3.3,6.3-3.3,10.7
				c0,2.5,0.3,4.6,0.9,6.4s1.5,3.2,2.6,4.4c1,1.1,2.3,2,3.7,2.6c1.4,0.5,2.9,0.8,4.3,0.8c2,0,3.9-0.3,5.6-0.9s3.1-1.3,4-2V78.5z"/>
			<path class="st0" d="M484.4,115.9c-4,0-7.7-0.7-11-2c-3.2-1.3-6.1-3.2-8.5-5.8c-2.4-2.5-4.2-5.7-5.5-9.4c-1.3-3.7-1.9-8-1.9-12.8
				s0.7-9,2.2-12.8c1.5-3.7,3.4-6.8,5.9-9.4c2.5-2.5,5.4-4.5,8.7-5.8c3.3-1.3,6.8-2,10.6-2c2.4,0,4.5,0.2,6.4,0.5
				c1.7,0.3,3.3,0.7,5,1.2c1.4,0.4,2.5,0.9,3.4,1.3c0.6,0.3,1.2,0.6,1.8,1l-2.3,6.6c-0.5-0.3-1.2-0.7-2.1-1.1s-2-0.8-3.2-1.2
				c-1.3-0.4-2.6-0.7-3.9-0.9c-1.4-0.2-2.8-0.4-4.3-0.4c-3,0-5.8,0.5-8.2,1.6c-2.4,1-4.5,2.6-6.2,4.5c-1.7,2-3,4.4-3.9,7.2
				c-0.9,2.8-1.4,6-1.4,9.5c0,3.4,0.4,6.5,1.2,9.3s2,5.2,3.6,7.2s3.6,3.6,6,4.7s5.2,1.7,8.4,1.7c3.7,0,6.7-0.4,9.2-1.2
				c2.4-0.8,4.2-1.5,5.5-2.1l2.1,6.6c-0.4,0.3-1.1,0.6-2.1,1c-1.2,0.5-2.5,0.9-3.7,1.2C492.2,115.5,488.3,115.9,484.4,115.9
				L484.4,115.9z"/>
			<path class="st0" d="M507.7,93.3c0-3.8,0.6-7.1,1.7-10c1.1-2.8,2.6-5.2,4.4-7.1c1.8-1.8,3.9-3.3,6.3-4.2c2.3-0.9,4.8-1.4,7.3-1.4
				c5.8,0,10.2,1.8,13.3,5.4s4.6,9.1,4.6,16.5v1.3c0,0.5,0,1-0.1,1.4h-29.4c0.3,4.5,1.6,7.8,3.9,10.2c2.3,2.3,5.8,3.5,10.6,3.5
				c2.7,0,5-0.2,6.8-0.7s3.2-0.9,4.2-1.4l1.1,6.4c-0.9,0.5-2.6,1-4.9,1.6c-2.3,0.5-5,0.8-8,0.8c-3.7,0-7-0.6-9.7-1.7s-5-2.7-6.7-4.7
				c-1.8-2-3.1-4.3-3.9-7.1C508.1,99.5,507.7,96.5,507.7,93.3z M537.2,89.1c0.1-3.5-0.8-6.3-2.6-8.5s-4.3-3.3-7.4-3.3
				c-1.8,0-3.3,0.3-4.7,1c-1.3,0.7-2.5,1.6-3.4,2.7c-1,1.1-1.7,2.4-2.2,3.8s-0.9,2.9-1,4.4L537.2,89.1z"/>
			<path class="st0" d="M572.4,70.8c0.7,0,1.4,0,2.3,0.1c0.9,0.1,1.7,0.2,2.5,0.3c0.8,0.1,1.6,0.3,2.3,0.4c0.5,0.1,1,0.2,1.5,0.4
				l-1.3,6.7c-0.6-0.2-1.6-0.5-3-0.8s-3.2-0.5-5.4-0.4c-1.4,0-2.9,0.2-4.3,0.5c-1.4,0.3-2.3,0.5-2.8,0.6v36.1h-7.7V73.5
				c1.8-0.7,4.1-1.3,6.8-1.9C566,71.1,569,70.8,572.4,70.8z"/>
			<path class="st0" d="M596,71.7h16.3v6.4H596V98c0,2.1,0.2,3.9,0.5,5.3s0.8,2.5,1.5,3.3c0.6,0.8,1.5,1.4,2.5,1.7
				c1,0.3,2.1,0.5,3.5,0.5c2.3,0,4.2-0.3,5.6-0.8c1.4-0.5,2.4-0.9,2.9-1.1l1.5,6.4c-0.8,0.4-2.1,0.9-4,1.4c-1.9,0.6-4.1,0.9-6.6,0.9
				c-2.9,0-5.3-0.4-7.2-1.1s-3.4-1.9-4.6-3.3c-1.2-1.5-2-3.3-2.4-5.5c-0.5-2.2-0.7-4.7-0.7-7.6V59.7l7.7-1.3L596,71.7z"/>
			<path class="st0" d="M632.3,109.2c3.1,0,5.5-0.4,7-1.2s2.3-2.1,2.3-4s-0.7-3.4-2.2-4.5s-3.9-2.3-7.4-3.7c-1.7-0.7-3.2-1.3-4.8-2
				c-1.4-0.6-2.7-1.4-3.9-2.4c-1.1-0.9-2-2.1-2.6-3.4c-0.7-1.3-1-2.9-1-4.9c0-3.8,1.4-6.8,4.2-9s6.6-3.3,11.5-3.3
				c1.2,0,2.4,0.1,3.6,0.2c1.2,0.1,2.3,0.3,3.4,0.5s2,0.4,2.8,0.6s1.4,0.4,1.9,0.6l-1.4,6.6c-0.8-0.4-2.1-0.9-3.9-1.4
				c-1.8-0.5-3.9-0.7-6.4-0.7c-2.1,0-4,0.4-5.6,1.3s-2.4,2.2-2.4,4c0,0.9,0.2,1.7,0.5,2.5c0.4,0.8,1,1.4,1.7,1.9
				c0.9,0.6,1.8,1.2,2.8,1.6c1.1,0.5,2.4,1,4,1.6c2,0.8,3.9,1.5,5.4,2.3c1.6,0.7,3,1.6,4.1,2.6s2,2.2,2.6,3.6s0.9,3.1,0.9,5.2
				c0,4-1.5,7-4.4,9s-7.1,3.1-12.6,3.1c-3.8,0-6.8-0.3-8.9-0.9c-2.1-0.6-3.6-1.1-4.4-1.4l1.4-6.6c0.9,0.3,2.3,0.8,4.2,1.5
				S629.1,109.1,632.3,109.2z"/>
		</g>
	</g>
	<g>
		<path id="Path_136" class="st1" d="M7.4-1.1h165.3v165.3H7.4V-1.1z"/>
		<g id="Group_155">
			<path id="Path_137" class="st2" d="M90.1,116h18.3c-4.8,3.1-10.9,6.5-18.3,10.3V116z M90.1,76.9V34.5c6.2,5.7,11.1,9.4,14.7,11.2
				c3.6,1.8,10.2,4.6,19.7,8.3c0,8.8,0,16.4-0.2,23H90.1z"/>
			<path id="Path_138" class="st3" d="M71.8,116h18.3v10.3C82.7,122.5,76.6,119.1,71.8,116z M55.9,76.9c-0.2-6.6-0.3-14.2-0.2-23
				c9.5-3.7,16.1-6.5,19.7-8.3s8.5-5.6,14.7-11.2v42.5H55.9z"/>
		</g>
		
			<linearGradient id="Path_139_1_" gradientUnits="userSpaceOnUse" x1="-365.1274" y1="462.7119" x2="-363.9795" y2="462.7119" gradientTransform="matrix(126.3358 0 0 -126.3348 46146.4141 58537.1836)">
			<stop  offset="0" style="stop-color:#D30200"/>
			<stop  offset="1" style="stop-color:#A80100"/>
		</linearGradient>
		<path id="Path_139" class="st4" d="M27.1,116h12.8c19,27.7,56.9,34.7,84.6,15.7c6.2-4.2,11.5-9.6,15.7-15.7h13.2l-6.5,3
			c-1.5,0.7-2.5,2-2.6,3.6l-0.8,7.1c-0.3,2.1-1.9,3.8-4,4l-7.1,0.8c-1.6,0.2-3,1.2-3.6,2.6l-3,6.5c-0.9,1.9-3,3-5.1,2.6l-7-1.4
			c-1.6-0.3-3.2,0.2-4.3,1.4l-4.9,5.3c-1.4,1.6-3.8,1.9-5.6,0.9l-6.3-3.5c-1.4-0.8-3.1-0.8-4.5,0l-6.3,3.5c-1.9,1-4.2,0.7-5.6-0.9
			l-4.9-5.3c-1.1-1.2-2.7-1.7-4.3-1.4l-7,1.4c-2.1,0.4-4.2-0.7-5.1-2.6l-3-6.5c-0.7-1.5-2-2.5-3.6-2.6l-7.1-0.8
			c-2.1-0.3-3.8-1.9-4-4l-0.8-7.1c-0.2-1.6-1.2-3-2.6-3.6L27.1,116z M21.1,76.9l-2.7-4.9c-1-1.9-0.7-4.2,0.9-5.6l5.3-4.9
			c1.2-1.1,1.7-2.7,1.4-4.3l-1.4-7c-0.4-2.1,0.7-4.2,2.6-5.1l6.5-3c1.5-0.7,2.5-2,2.6-3.6l0.8-7.1c0.3-2.1,1.9-3.8,4-4l7.1-0.8
			c1.6-0.2,3-1.2,3.6-2.6l3-6.5c0.9-1.9,3-3,5.1-2.6l7,1.4c1.6,0.3,3.2-0.2,4.3-1.4l4.9-5.3c1.4-1.6,3.8-1.9,5.6-0.9l6.3,3.5
			c1.4,0.8,3.1,0.8,4.5,0l6.3-3.5c1.9-1,4.2-0.7,5.6,0.9l4.9,5.3c1.1,1.2,2.7,1.7,4.3,1.4l7-1.4c2.1-0.4,4.2,0.6,5.1,2.6l3,6.5
			c0.7,1.5,2,2.5,3.6,2.6l7.1,0.8c2.1,0.3,3.8,1.9,4,4l0.8,7.1c0.2,1.6,1.2,3,2.6,3.6l6.5,3c1.9,0.9,3,3,2.6,5.1l-1.4,7
			c-0.3,1.6,0.2,3.2,1.4,4.3l5.3,4.9c1.6,1.4,1.9,3.8,0.9,5.6l-2.7,4.9h-8.7c-2.5-33.5-31.7-58.6-65.2-56.1
			c-30,2.3-53.8,26.1-56.1,56.1H21.1z"/>
		
			<linearGradient id="Path_140_1_" gradientUnits="userSpaceOnUse" x1="-364.8692" y1="462.2404" x2="-363.7213" y2="462.2404" gradientTransform="matrix(99.684 0 0 -100.0284 36404.4844 46318.6602)">
			<stop  offset="0" style="stop-color:#D30200"/>
			<stop  offset="1" style="stop-color:#A80100"/>
		</linearGradient>
		<path id="Path_140" class="st5" d="M44.2,116h4.4c19,22.9,53,26.1,76,7.1c2.6-2.1,5-4.5,7.1-7.1h4.4c-19,25.4-55,30.5-80.4,11.5
			C51.3,124.2,47.4,120.3,44.2,116z M32.9,76.9C35.4,45.3,63,21.8,94.6,24.3c28.1,2.2,50.4,24.6,52.7,52.7h-3.5
			c-2.5-29.7-28.6-51.7-58.3-49.2c-26.2,2.2-47,23-49.2,49.2C36.3,76.9,32.9,76.9,32.9,76.9z"/>
		
			<linearGradient id="Rectangle_139_1_" gradientUnits="userSpaceOnUse" x1="-365.1829" y1="456.3591" x2="-364.0349" y2="456.3591" gradientTransform="matrix(134 0 0 -28 48947.6719 12874.5)">
			<stop  offset="0" style="stop-color:#D30200"/>
			<stop  offset="1" style="stop-color:#A80100"/>
		</linearGradient>
		<path id="Rectangle_139" class="st6" d="M16.1,80.4H164c1.6,0,3,1.3,3,3v26.2c0,1.6-1.3,3-3,3H16.1c-1.6,0-3-1.3-3-3V83.4
			C13.2,81.7,14.5,80.4,16.1,80.4z"/>
		<path id="Path_141" class="st7" d="M147.4,100c-0.1,0.4-0.2,0.8-0.4,1.2c-0.6,0.9-1.5,1.5-2.6,1.5c-1.4,0.2-2.8,0.1-4.2-0.3
			c-0.4-0.1-0.7-0.2-0.5-0.7c0.1-0.4,0.2-0.8,0.3-1.2c1.2,0.6,2.4,0.8,3.7,0.6c0.3,0,0.5-0.1,0.8-0.1c0.4-0.2,0.8-0.3,0.8-0.8
			c0-0.6,0-1.1-0.5-1.4c-1-0.5-2-1-3.1-1.4c-1.5-0.5-2.3-2.2-1.8-3.7c0.1-0.3,0.3-0.6,0.4-0.8c0.7-0.8,1.7-1.3,2.8-1.3
			c1.1,0,2.2,0.1,3.3,0.3c0.1,0,0.2,0.1,0.3,0.2l-0.3,1.5c-0.9-0.1-1.8-0.3-2.6-0.4c-0.4,0-0.8,0.1-1.1,0.2c-0.5,0.1-0.9,0.5-0.9,1
			c-0.1,0.5,0.2,1,0.6,1.3c0.9,0.4,1.8,0.8,2.7,1.2c1.2,0.3,2.1,1.4,2.2,2.7c0,0,0.1,0,0.1,0.1L147.4,100L147.4,100z M67.1,87.3
			c0.6,0.3,1,1,0.8,1.6c-0.1,0.7-0.8,1.1-1.5,1c0,0-0.1,0-0.1,0c-0.7-0.2-1.1-0.9-0.9-1.6c0,0,0-0.1,0-0.1c0.2-0.3,0.4-0.6,0.7-0.9
			C66.1,87.3,67.1,87.3,67.1,87.3z M89.5,96.5L89.5,96.5c0-0.8,0-1.6,0-2.5c0-0.4-0.1-0.6-0.6-0.6c-0.5,0-1-0.1-1.5-0.1
			c-1.5-0.1-2.8,1-3,2.5c-0.1,0.6-0.1,1.3-0.1,1.9c0,1.4,1.1,2.6,2.5,2.7c0.7,0,1.3-0.1,2-0.3c0.5-0.1,0.8-0.5,0.7-1
			C89.5,98.3,89.5,97.4,89.5,96.5 M83.1,104.4c1.3,0.1,2.5,0.4,3.8,0.4c1.4,0.1,2.6-0.9,2.7-2.2c0-0.3,0-0.5,0-0.8
			c-0.5,0.1-1.1,0.3-1.6,0.4c-1.4,0.3-3,0-4.1-1c-0.8-0.7-1.3-1.7-1.5-2.7c-0.4-1.5-0.1-3.1,0.6-4.4c0.8-1.5,2.4-2.4,4.2-2.4
			c1.4,0,2.7,0.1,4.1,0.4c0.2,0,0.4,0.2,0.4,0.4c0,0,0,0,0,0c0,3.3,0.1,6.7,0,10c0,2-1.6,3.7-3.6,3.9c-1.6,0.2-3.2,0.1-4.7-0.3
			c-0.3-0.1-0.4-0.1-0.3-0.5C83,105.2,83,104.8,83.1,104.4 M110.3,88.7l-0.6,1.6c-1.1-0.5-2.3-0.8-3.5-0.8c-2-0.1-3.9,1.2-4.5,3.1
			c-0.7,1.9-0.6,4,0.2,5.8c0.7,1.7,2.3,2.7,4.1,2.7c1.3,0,2.7-0.2,3.9-0.8c0.2,0.6,0.4,1.1,0.6,1.8c-0.8,0.2-1.5,0.5-2.2,0.6
			c-1.4,0.3-2.9,0.3-4.4-0.1c-2.2-0.6-3.9-2.4-4.4-4.6c-0.8-2.6-0.4-5.4,1.2-7.7c1-1.4,2.6-2.3,4.3-2.5
			C106.8,87.5,108.7,87.8,110.3,88.7 M113.8,96h5.3c0.2-1.4-0.8-2.7-2.2-2.9c-0.1,0-0.2,0-0.2,0C115.1,93.1,113.8,94.4,113.8,96
			C113.8,96,113.8,96,113.8,96 M121.3,97.6h-7.5c0,2.4,1.3,3.4,3.2,3.5c1.1,0,2.1-0.1,3.2-0.3l0.2,1.5c-0.5,0.1-1,0.3-1.5,0.4
			c-1.4,0.3-2.9,0.2-4.3-0.3c-1.7-0.7-2.8-2.3-2.9-4.1c-0.2-1.3-0.1-2.7,0.4-3.9c1.1-2.5,3.9-3.6,6.4-2.6c0.3,0.1,0.5,0.2,0.7,0.4
			c1,0.8,1.7,2,1.7,3.3C121.2,96.2,121.2,96.9,121.3,97.6 M72.9,93.5v9.1h-2c0-0.2,0-0.3,0-0.5c0-3.2,0-6.4,0-9.6
			c0-0.4,0.1-0.5,0.5-0.6c1.4-0.3,2.8-0.4,4.2-0.4c2.1-0.1,3.9,1.5,4,3.6c0,0.2,0,0.3,0,0.5c0,2.2,0,4.3,0.1,6.5
			c0,0.5-0.1,0.6-0.6,0.6c-1.5,0-1.5,0-1.5-1.4c0-1.6,0-3.3,0-4.9c0-0.6-0.1-1.2-0.4-1.8c-0.5-0.9-1.5-1.4-2.5-1.2
			C74.2,93.3,73.6,93.4,72.9,93.5 M52.3,91.8h2.1v10.6c-0.9,0.1-1.8,0.3-2.7,0.4c-0.7,0.1-1.4,0-2.2,0c-1.8,0.1-3.5-1.3-3.7-3.1
			c-0.2-1.1-0.2-2.2-0.2-3.4c0-1.5,0-3,0-4.6h2.1v0.6c0,1.6,0,3.2,0,4.9c0,0.7,0.1,1.4,0.2,2.1c0.2,1.1,1.2,1.8,2.2,1.7
			c0.7,0,1.4,0,2.2,0L52.3,91.8L52.3,91.8z M37.1,90h-4.5v-1.8h11.1V90h-4.5v0.7c0,3.8,0,7.5,0,11.3c0,0.5-0.2,0.7-0.7,0.7
			c-0.5,0-0.9,0-1.5,0V90z M132,88.6l1.9-0.3v3.3h4.1v1.7h-4.1c0,0.2,0,0.3,0,0.5c0,1.5,0,3.1,0,4.6c0,0.5,0.1,0.9,0.2,1.4
			c0.3,1.1,1.2,1.4,2.2,1.3c0.6-0.1,1.2-0.2,1.8-0.4l0.4,1.5c-0.9,0.5-2,0.7-3,0.6c-0.3,0-0.7-0.1-1-0.2c-1.4-0.2-2.4-1.5-2.3-2.9
			c-0.1-3.7-0.1-7.3-0.1-11C131.9,88.8,132,88.7,132,88.6 M59.7,93.5v9.1h-2.1c0-0.2,0-0.3,0-0.5c0-3.1,0-6.3,0-9.4
			c-0.1-0.3,0.2-0.6,0.5-0.7c0,0,0,0,0,0c1.7-0.5,3.4-0.7,5.1-0.4c0.6,0.1,0.7,0.2,0.5,0.8c-0.1,0.3-0.1,0.8-0.3,1
			c-0.1,0.1-0.6-0.1-0.9-0.1c-0.5-0.1-0.9-0.1-1.4-0.1C60.6,93.4,60.1,93.4,59.7,93.5 M129.9,93.3c-0.8-0.1-1.6-0.1-2.4-0.2
			c-0.2,0-0.4,0-0.6,0.1c-1,0.2-1,0.2-1,1.2v8.1H124c0-0.2,0-0.3,0-0.5c0-3.2,0-6.3,0-9.4c-0.1-0.3,0.2-0.6,0.5-0.7c0,0,0,0,0,0
			c1.7-0.6,3.5-0.7,5.3-0.4c0.4,0.1,0.5,0.2,0.4,0.6C130,92.6,130,93,129.9,93.3 M65.7,91.8h2c0,0.2,0,0.3,0,0.5c0,3.3,0,6.5,0,9.8
			c0,0.4-0.1,0.6-0.6,0.6c-0.5,0-0.9,0-1.4,0V91.8L65.7,91.8z"/>
	</g>
</g>
</svg>
