<svg width="144" height="144" xmlns="http://www.w3.org/2000/svg"><defs><linearGradient x1="0%" y1="50%" x2="100%" y2="50%" id="a"><stop stop-color="#D30200" offset="0%"/><stop stop-color="#A80100" offset="100%"/></linearGradient><linearGradient x1="0%" y1="50%" x2="100%" y2="50%" id="b"><stop stop-color="#D30200" offset="0%"/><stop stop-color="#A80100" offset="100%"/></linearGradient><linearGradient x1="0%" y1="50%" x2="100%" y2="50%" id="c"><stop stop-color="#D30200" offset="0%"/><stop stop-color="#A80100" offset="100%"/></linearGradient></defs><g fill="none" fill-rule="evenodd"><path d="M0 0h144v144H0z"/><g fill-rule="nonzero"><path d="M72.008 102h15.917c-4.175 2.7-9.48 5.7-15.917 9v-9zm0-34V31c5.412 4.93 9.69 8.187 12.834 9.771 3.144 1.585 8.866 3.995 17.166 7.229.033 7.624-.038 14.29-.214 20H72.008z" fill="#780200"/><path d="M56.091 102h15.917v9c-6.437-3.3-11.742-6.3-15.917-9zM42.222 68c-.176-5.71-.247-12.376-.214-20 8.3-3.234 14.022-5.644 17.166-7.229 3.144-1.584 7.422-4.841 12.834-9.771v37H42.222z" fill="#A80100"/></g><path d="M17.125 102h11.177c9.555 13.892 25.563 23 43.698 23s34.143-9.108 43.698-23h11.512l-5.678 2.615a4 4 0 00-2.3 3.165l-.733 6.215a4 4 0 01-3.504 3.504l-6.215.733a4 4 0 00-3.165 2.3l-2.618 5.684a4 4 0 01-4.415 2.25l-6.138-1.223a4 4 0 00-3.72 1.208l-4.247 4.598a4 4 0 01-4.894.775l-5.46-3.06a4 4 0 00-3.911 0l-5.46 3.06a4 4 0 01-4.894-.775l-4.247-4.598a4 4 0 00-3.72-1.208l-6.138 1.223a4 4 0 01-4.415-2.25l-2.618-5.684a4 4 0 00-3.165-2.3l-6.215-.733a4 4 0 01-3.504-3.504l-.733-6.215a4 4 0 00-2.3-3.165L17.125 102zm-5.233-34l-2.381-4.248a4 4 0 01.775-4.894l4.598-4.247a4 4 0 001.208-3.72l-1.223-6.138a4 4 0 012.25-4.415l5.684-2.618a4 4 0 002.3-3.165l.733-6.215a4 4 0 013.504-3.504l6.215-.733a4 4 0 003.165-2.3l2.618-5.684a4 4 0 014.415-2.25l6.138 1.223a4 4 0 003.72-1.208l4.247-4.598a4 4 0 014.894-.775l5.46 3.06a4 4 0 003.911 0l5.46-3.06a4 4 0 014.894.775l4.247 4.598a4 4 0 003.72 1.208l6.138-1.223a4 4 0 014.415 2.25l2.618 5.684a4 4 0 003.165 2.3l6.215.733a4 4 0 013.504 3.504l.733 6.215a4 4 0 002.3 3.165l5.684 2.618a4 4 0 012.25 4.415l-1.223 6.138a4 4 0 001.208 3.72l4.598 4.247a4 4 0 01.775 4.894L132.444 68h-7.593C122.807 40.597 99.925 19 72 19S21.193 40.597 19.149 68h-7.257z" fill="url(#a)" fill-rule="nonzero"/><path d="M31.996 102h3.822c8.621 10.386 21.63 17 36.182 17 14.553 0 27.56-6.614 36.182-17h3.822c-9.122 12.144-23.646 20-40.004 20-16.358 0-30.882-7.856-40.004-20zm-9.838-34C24.195 42.256 45.732 22 72 22c26.268 0 47.805 20.256 49.842 46h-3.01C116.802 43.915 96.61 25 72 25S27.198 43.915 25.168 68h-3.01z" fill="url(#b)" fill-rule="nonzero"/><rect fill="url(#c)" fill-rule="nonzero" x="5" y="71" width="134" height="28" rx="2.6"/><path d="M121.97 88.132c-.116.345-.184.718-.36 1.028-.493.872-1.358 1.18-2.277 1.335a7.673 7.673 0 01-3.63-.27c-.34-.107-.576-.188-.4-.63.123-.308.149-.653.23-1.046 1.066.557 2.14.613 3.233.538.232-.016.476-.038.69-.121.335-.131.677-.293.709-.728.037-.487.017-.99-.472-1.243a43.27 43.27 0 00-2.66-1.256c-1.872-.807-2.092-2.726-1.17-3.964.587-.788 1.479-1.108 2.399-1.125.947-.018 1.898.17 2.847.279.099.01.19.088.289.136l-.285 1.302c-.78-.111-1.54-.251-2.306-.315-.315-.026-.647.092-.963.173-.452.117-.77.418-.79.882-.02.436.083.888.548 1.106.778.364 1.554.736 2.349 1.058 1.08.435 1.866 1.088 1.945 2.34 0 .018.049.03.075.045v.476zM51.942 77c.525.327.848.73.672 1.412-.165.64-.728.998-1.385.821-.595-.159-.985-.864-.737-1.439.128-.295.391-.53.594-.794h.856zm19.586 8.068h-.014c0-.713-.024-1.427.01-2.138.019-.387-.11-.53-.486-.543-.441-.016-.88-.112-1.319-.109-1.358.01-2.391.843-2.621 2.16-.093.538-.082 1.105-.047 1.653.086 1.334.85 2.217 2.16 2.36.554.058 1.142-.156 1.71-.27.442-.088.61-.4.608-.832-.004-.76-.001-1.52-.001-2.28m-5.623 6.817c1.145.12 2.213.318 3.282.322 1.495.006 2.44-.867 2.328-2.627-.478.12-.95.262-1.431.355-1.315.251-2.528.028-3.564-.867-.724-.626-1.099-1.446-1.295-2.376-.287-1.362-.148-2.669.537-3.876.787-1.387 2.055-2.013 3.619-2.103 1.205-.07 2.377.133 3.544.39.221.05.332.152.331.414-.01 2.917.048 5.836-.026 8.751-.047 1.837-1.23 3.135-3.141 3.383-1.387.18-2.748.131-4.095-.266-.264-.077-.371-.13-.278-.44.115-.384.144-.79.189-1.06M89.6 78.275l-.502 1.421c-.995-.395-1.97-.712-3.054-.721-1.799-.012-3.295.943-3.897 2.709-.574 1.683-.556 3.406.135 5.065.651 1.562 1.93 2.256 3.567 2.337 1.162.056 2.27-.208 3.375-.721.16.495.31.963.496 1.548-.665.186-1.296.413-1.946.535-1.264.239-2.547.302-3.796-.066-2.045-.6-3.315-1.987-3.798-4.049-.555-2.363-.449-4.646 1.05-6.692.924-1.262 2.198-1.964 3.731-2.153 1.831-.225 3.422.067 4.64.788m3.091 6.364h4.596c.073-1.462-.835-2.523-2.108-2.562-1.292-.04-2.43.984-2.488 2.563m6.474 1.404h-6.522c.034 2.055 1.125 2.984 2.822 3.023.907.02 1.819-.174 2.777-.278l.203 1.292c-.438.12-.874.27-1.325.362-1.271.26-2.536.25-3.75-.267-1.564-.666-2.29-1.957-2.497-3.561-.15-1.16-.085-2.317.383-3.42 1.117-2.63 4.267-3.24 6.248-1.9 1.008.683 1.359 1.739 1.52 2.87.084.59.093 1.192.14 1.879M57.06 82.444v7.917h-1.754c-.01-.15-.027-.287-.027-.425-.002-2.773.004-5.548-.008-8.322-.002-.348.088-.459.455-.539a14.995 14.995 0 013.65-.363c2.096.057 3.471 1.3 3.502 3.527.026 1.884.038 3.768.08 5.652.01.405-.129.51-.516.505-1.265-.01-1.265.003-1.265-1.244 0-1.427.027-2.854-.015-4.28a5.273 5.273 0 00-.31-1.557c-.247-.708-1.293-1.189-2.208-1.084-.51.06-1.02.137-1.585.213M39.08 80.93h1.796v9.229c-.77.115-1.55.266-2.336.335-.624.056-1.257-.005-1.885.015-1.638.052-2.99-1.094-3.245-2.686-.154-.96-.175-1.945-.199-2.92-.03-1.312-.008-2.625-.008-3.967H35v.492c0 1.41-.019 2.82.01 4.232.01.609.066 1.227.192 1.823.204.972.935 1.508 1.94 1.51.628.002 1.256 0 1.937 0v-8.062zm-13.188-1.566H22v-1.567h9.633v1.574H27.75v.605c0 3.283-.01 6.565.01 9.846.004.473-.145.612-.593.573-.406-.034-.818-.007-1.275-.007V79.364zm82.616-1.18l1.648-.25v2.876h3.594v1.496h-3.542c-.016.153-.04.273-.04.393-.002 1.347-.014 2.695.007 4.042.007.403.086.81.174 1.207.218.98 1.032 1.193 1.9 1.106.522-.053 1.03-.228 1.583-.357l.318 1.332c-.837.422-1.725.555-2.642.53a5.205 5.205 0 01-.882-.132c-1.363-.285-2.008-1.33-2.043-2.498-.096-3.182-.085-6.365-.114-9.55-.001-.058.022-.118.039-.195m-63.004 4.282v7.898h-1.808c-.01-.16-.025-.297-.025-.436-.002-2.727.005-5.454-.01-8.181-.002-.343.101-.473.431-.58 1.467-.466 2.956-.555 4.469-.343.539.077.594.188.463.732-.072.299-.061.689-.249.864-.13.122-.536-.066-.821-.094-.405-.038-.813-.09-1.217-.07-.384.02-.764.126-1.233.21m61.188-.169c-.724-.057-1.403-.118-2.083-.16-.168-.01-.341.033-.508.07-.88.2-.88.202-.88 1.08v7.063h-1.67c-.01-.14-.03-.276-.03-.411-.002-2.744.005-5.486-.012-8.23-.002-.348.114-.494.434-.588 1.514-.442 3.038-.638 4.603-.31.317.067.465.182.34.546-.11.318-.14.665-.194.94M50.74 80.93h1.719c.01.16.026.299.026.437 0 2.836-.005 5.672.008 8.508.002.38-.086.554-.5.52-.405-.031-.816-.006-1.253-.006v-9.46z" fill="#FFF"/></g></svg>