<?xml version="1.0" encoding="UTF-8"?>
<svg width="144px" height="144px" viewBox="0 0 144 144" version="1.1" xmlns="http://www.w3.org/2000/svg" xmlns:xlink="http://www.w3.org/1999/xlink">
    <!-- Generator: Sketch 55.2 (78181) - https://sketchapp.com -->
    <title>Turing Certs Logo - PrimaryBG</title>
    <desc>Created with Sketch.</desc>
    <g id="Turing-Certs-Logo---PrimaryBG" stroke="none" stroke-width="1" fill="none" fill-rule="evenodd">
        <rect id="Rectangle" fill-rule="nonzero" x="0" y="0" width="144" height="144"></rect>
        <g id="Logo-2" transform="translate(5.000000, 9.000000)">
            <g id="盾牌" transform="translate(37.000000, 23.000000)" fill-rule="nonzero">
                <path d="M30.0078786,71 L45.9247667,71 C41.7499861,73.7008964 36.4443567,76.7008964 30.0078786,80 L30.0078786,71 Z M30.0078786,37 L30.0078786,0 C35.4199595,4.92962741 39.6980507,8.18679151 42.8421524,9.77149233 C45.986254,11.3561931 51.7081628,13.7656957 60.0078786,17 C60.0410179,24.6239962 59.9696138,31.2906628 59.7936664,37 L30.0078786,37 Z" id="右盾" fill="#780200"></path>
                <path d="M14.0909905,71 L30.0078786,71 L30.0078786,80 C23.5714006,76.7008964 18.2657712,73.7008964 14.0909905,71 Z M0.22209088,37 C0.0461434313,31.2906628 -0.0252606496,24.6239962 0.00787863692,17 C8.3075945,13.7656957 14.0295033,11.3561931 17.1736049,9.77149233 C20.3177066,8.18679151 24.5957978,4.92962741 30.0078786,0 L30.0078786,37 L0.22209088,37 Z" id="左盾" fill="#FFFFFF"></path>
            </g>
            <path d="M12.1250553,94 L23.3018841,94 C32.8571258,107.891623 48.8648751,117 67,117 C85.1351249,117 101.142874,107.891623 110.698116,94 L122.21004,94 L116.531626,96.6150773 C115.266503,97.1977037 114.395544,98.3964764 114.232378,99.7797209 L113.499192,105.995321 C113.282398,107.833192 111.833192,109.282398 109.995321,109.499192 L103.779721,110.232378 C102.396476,110.395544 101.197704,111.266503 100.615077,112.531626 L97.9970498,118.216446 C97.2229333,119.897372 95.3968273,120.82782 93.5819148,120.466069 L87.4439611,119.242645 C86.0779963,118.970379 84.6687545,119.42827 83.7236995,120.451431 L79.4771015,125.049001 C78.2214381,126.408442 76.1971839,126.729053 74.5828866,125.824168 L69.1234047,122.763891 C67.9084297,122.082844 66.4266651,122.082844 65.2116902,122.763891 L59.7522082,125.824168 C58.1379109,126.729053 56.1136568,126.408442 54.8579934,125.049001 L50.6113953,120.451431 C49.6663404,119.42827 48.2570986,118.970379 46.8911337,119.242645 L40.75318,120.466069 C38.9382675,120.82782 37.1121615,119.897372 36.338045,118.216446 L33.7200175,112.531626 C33.1373912,111.266503 31.9386185,110.395544 30.555374,110.232378 L24.3397742,109.499192 C22.5019027,109.282398 21.0526968,107.833192 20.8359032,105.995321 L20.1027169,99.7797209 C19.9395507,98.3964764 19.0685914,97.1977037 17.8034688,96.6150773 L12.1250553,94 Z M6.89199894,60 L4.51092638,55.7522082 C3.60604233,54.1379109 3.92665269,52.1136568 5.28609386,50.8579934 L9.88366364,46.6113953 C10.9068252,45.6663404 11.3647157,44.2570986 11.0924499,42.8911337 L9.86902552,36.75318 C9.50727495,34.9382675 10.4377224,33.1121615 12.1186492,32.338045 L17.8034688,29.7200175 C19.0685914,29.1373912 19.9395507,27.9386185 20.1027169,26.555374 L20.8359032,20.3397742 C21.0526968,18.5019027 22.5019027,17.0526968 24.3397742,16.8359032 L30.555374,16.1027169 C31.9386185,15.9395507 33.1373912,15.0685914 33.7200175,13.8034688 L36.338045,8.11864917 C37.1121615,6.43772245 38.9382675,5.50727495 40.75318,5.86902552 L46.8911337,7.09244991 C48.2570986,7.36471568 49.6663404,6.90682524 50.6113953,5.88366364 L54.8579934,1.28609386 C56.1136568,-0.0733473092 58.1379109,-0.393957666 59.7522082,0.510926382 L65.2116902,3.57120412 C66.4266651,4.25225059 67.9084297,4.25225059 69.1234047,3.57120412 L74.5828866,0.510926382 C76.1971839,-0.393957666 78.2214381,-0.0733473092 79.4771015,1.28609386 L83.7236995,5.88366364 C84.6687545,6.90682524 86.0779963,7.36471568 87.4439611,7.09244991 L93.5819148,5.86902552 C95.3968273,5.50727495 97.2229333,6.43772245 97.9970498,8.11864917 L100.615077,13.8034688 C101.197704,15.0685914 102.396476,15.9395507 103.779721,16.1027169 L109.995321,16.8359032 C111.833192,17.0526968 113.282398,18.5019027 113.499192,20.3397742 L114.232378,26.555374 C114.395544,27.9386185 115.266503,29.1373912 116.531626,29.7200175 L122.216446,32.338045 C123.897372,33.1121615 124.82782,34.9382675 124.466069,36.75318 L123.242645,42.8911337 C122.970379,44.2570986 123.42827,45.6663404 124.451431,46.6113953 L129.049001,50.8579934 C130.408442,52.1136568 130.729053,54.1379109 129.824168,55.7522082 L127.443096,60 L119.851323,60 C117.806582,32.5973509 94.9254567,11 67,11 C39.0745433,11 16.1934182,32.5973509 14.1486774,60 L6.89199894,60 Z" id="外圈" fill="#FFFFFF" fill-rule="nonzero"></path>
            <path d="M26.9963381,94 L30.8182911,94 C39.4394173,104.386003 52.4473177,111 67,111 C81.5526823,111 94.5605827,104.386003 103.181709,94 L107.003662,94 C97.8815986,106.144467 83.3581783,114 67,114 C50.6418217,114 36.1184014,106.144467 26.9963381,94 Z M17.1576697,60 C19.1954185,34.2559936 40.7321889,14 67,14 C93.2678111,14 114.804581,34.2559936 116.84233,60 L113.832179,60 C111.802311,35.9148615 91.6100569,17 67,17 C42.3899431,17 22.1976887,35.9148615 20.1678213,60 L17.1576697,60 Z" id="內圈" fill="#FFFFFF" fill-rule="nonzero"></path>
            <rect id="Rectangle" fill="#FFFFFF" fill-rule="nonzero" x="0" y="63" width="134" height="28" rx="2.6"></rect>
            <g id="Group-28" transform="translate(17.000000, 69.000000)" fill="#A80100">
                <path d="M99.9708,11.1319 C99.8538,11.4769 99.7858,11.8499 99.6108,12.1599 C99.1168,13.0319 98.2518,13.3409 97.3328,13.4949 C96.1068,13.7019 94.8948,13.6019 93.7028,13.2259 C93.3628,13.1179 93.1268,13.0369 93.3028,12.5949 C93.4258,12.2869 93.4518,11.9419 93.5338,11.5489 C94.5988,12.1059 95.6738,12.1619 96.7658,12.0869 C96.9978,12.0709 97.2418,12.0489 97.4558,11.9659 C97.7908,11.8349 98.1328,11.6729 98.1648,11.2379 C98.2018,10.7509 98.1818,10.2479 97.6928,9.9949 C96.8218,9.5469 95.9338,9.1269 95.0338,8.7389 C93.1608,7.9319 92.9408,6.0129 93.8638,4.7749 C94.4498,3.9869 95.3418,3.6669 96.2618,3.6499 C97.2088,3.6319 98.1598,3.8199 99.1088,3.9289 C99.2078,3.9399 99.2998,4.0169 99.3978,4.0649 C99.2928,4.5429 99.1938,4.9969 99.1128,5.3669 C98.3328,5.2559 97.5738,5.1159 96.8068,5.0519 C96.4918,5.0259 96.1598,5.1439 95.8438,5.2249 C95.3918,5.3419 95.0748,5.6429 95.0538,6.1069 C95.0348,6.5429 95.1368,6.9949 95.6018,7.2129 C96.3798,7.5769 97.1558,7.9489 97.9508,8.2709 C99.0318,8.7059 99.8168,9.3589 99.8958,10.6119 C99.8968,10.6289 99.9448,10.6419 99.9708,10.6559 L99.9708,11.1319 Z" id="Fill-1"></path>
                <path d="M29.942,0.0001 C30.467,0.3271 30.79,0.7301 30.614,1.4121 C30.449,2.0511 29.886,2.4101 29.229,2.2331 C28.634,2.0741 28.244,1.3691 28.492,0.7941 C28.62,0.4991 28.883,0.2631 29.086,0.0001 L29.942,0.0001 Z" id="Fill-4"></path>
                <path d="M49.528,8.0684 L49.514,8.0684 C49.514,7.3554 49.49,6.6414 49.524,5.9304 C49.543,5.5434 49.414,5.4004 49.038,5.3874 C48.597,5.3714 48.158,5.2754 47.719,5.2784 C46.361,5.2874 45.328,6.1214 45.098,7.4384 C45.005,7.9764 45.016,8.5434 45.051,9.0914 C45.137,10.4254 45.901,11.3084 47.211,11.4504 C47.765,11.5094 48.353,11.2954 48.921,11.1814 C49.363,11.0934 49.531,10.7814 49.5290176,10.3494 C49.525,9.5894 49.528,8.8294 49.528,8.0684 M43.905,14.8864 C45.05,15.0064 46.118,15.2044 47.187,15.2084 C48.682,15.2144 49.627,14.3414 49.515,12.5814 C49.037,12.7014 48.565,12.8434 48.084,12.9364 C46.769,13.1874 45.556,12.9644 44.52,12.0694 C43.796,11.4434 43.421,10.6234 43.225,9.6934 C42.938,8.3314 43.077,7.0244 43.762,5.8174 C44.549,4.4304 45.817,3.8044 47.381,3.7144 C48.586,3.6444 49.758,3.8474 50.925,4.1044 C51.146,4.1534 51.257,4.2564 51.256,4.5184 C51.246,7.4354 51.304,10.3544 51.23,13.2694 C51.183,15.1064 50,16.4044 48.089,16.6524 C46.702,16.8324 45.341,16.7834 43.994,16.3864 C43.73,16.3094 43.623,16.2564 43.716,15.9454 C43.831,15.5624 43.86,15.1554 43.905,14.8864" id="Fill-7"></path>
                <path d="M67.6002,1.2755 C67.4292,1.7595 67.2652,2.2225 67.0982,2.6965 C66.1032,2.3005 65.1272,1.9835 64.0442,1.9745 C62.2452,1.9625 60.7492,2.9175 60.1472,4.6835 C59.5732,6.3665 59.5912,8.0895 60.2822,9.7485 C60.9332,11.3105 62.2112,12.0045 63.8492,12.0855 C65.0112,12.1415 66.1192,11.8775 67.2242,11.3645 C67.3832,11.8595 67.5332,12.3275 67.7202,12.9125 C67.0552,13.0985 66.4242,13.3255 65.7742,13.4475 C64.5102,13.6865 63.2272,13.7495 61.9782,13.3815 C59.9332,12.7815 58.6632,11.3955 58.1802,9.3335 C57.6252,6.9695 57.7312,4.6865 59.2302,2.6405 C60.1542,1.3795 61.4282,0.6775 62.9612,0.4885 C64.7922,0.2625 66.3832,0.5545 67.6002,1.2755" id="Fill-9"></path>
                <path d="M70.6925,7.6407 L75.2875,7.6407 C75.3605,6.1777 74.4525,5.1167 73.1805,5.0777 C71.8885,5.0387 70.7505,6.0617 70.6925,7.6407 M77.1655,9.0447 L70.6435,9.0447 C70.6785,11.0997 71.7695,12.0287 73.4655,12.0677 C74.3725,12.0887 75.2845,11.8937 76.2425,11.7897 C76.2945,12.1217 76.3635,12.5587 76.4455,13.0817 C76.0085,13.2027 75.5715,13.3517 75.1215,13.4437 C73.8495,13.7037 72.5845,13.6937 71.3705,13.1767 C69.8065,12.5107 69.0815,11.2197 68.8735,9.6157 C68.7235,8.4557 68.7885,7.2987 69.2565,6.1957 C70.3735,3.5657 73.5245,2.9557 75.5055,4.2967 C76.5135,4.9787 76.8635,6.0347 77.0255,7.1657 C77.1095,7.7557 77.1175,8.3577 77.1655,9.0447" id="Fill-11"></path>
                <path d="M35.0592,5.4444 L35.0592,13.3614 L33.3062,13.3614 C33.2962,13.2114 33.2792,13.0744 33.2792,12.9364 C33.2772,10.1634 33.2832,7.3884 33.2711676,4.6144 C33.2692,4.2664 33.3592,4.1554 33.7262,4.0754 C34.9332,3.8104 36.1422,3.6784 37.3762,3.7124 C39.4722,3.7694 40.8472,5.0114 40.8782,7.2394 C40.9042,9.1234 40.9162,11.0074 40.9582,12.8914 C40.9672,13.2964 40.8292,13.4004 40.4422,13.3964 C39.1772,13.3854 39.1772,13.3994 39.1772,12.1524 C39.1762,10.7254 39.2042,9.2984 39.1622,7.8724 C39.1472,7.3494 39.0252,6.8114 38.8522,6.3154 C38.6052,5.6074 37.5592,5.1264 36.6442,5.2314 C36.1332,5.2904 35.6242,5.3684 35.0592,5.4444" id="Fill-13"></path>
                <path d="M17.0792,3.9307 L18.8762,3.9307 L18.8762,13.1587 C18.1052,13.2737 17.3262,13.4247 16.5402,13.4937 C15.9162,13.5497 15.2832,13.4887 14.6552,13.5087 C13.0172,13.5607 11.6652,12.4147 11.4102,10.8227 C11.2562,9.8637 11.2352,8.8777 11.2112,7.9027 C11.1802,6.5907 11.2032,5.2777 11.2032,3.9357 L13.0002,3.9357 L13.0002,4.4277 C13.0002,5.8377 12.9812,7.2487 13.0092,8.6597 C13.0202,9.2687 13.0762,9.8867 13.2022,10.4827 C13.4062,11.4547 14.1372,11.9907 15.1422,11.9937 C15.7702,11.9947 16.3982,11.9937 17.0792,11.9937 L17.0792,3.9307 Z" id="Fill-15"></path>
                <path d="M3.8917,2.3643 L-0.0003,2.3643 L-0.0003,0.7973 L9.6327,0.7973 L9.6327,2.3713 L5.7497,2.3713 L5.7497,2.9763 C5.7497,6.2593 5.7407,9.5413 5.7607,12.8223 C5.7637,13.2953 5.6147,13.4343 5.1667,13.3953 C4.7607,13.3613 4.3487,13.3883 3.8917,13.3883 L3.8917,2.3643 Z" id="Fill-17"></path>
                <path d="M86.5079,1.1837 C87.0519,1.1017 87.5829,1.0207 88.1559,0.9337 L88.1559,3.8097 L91.7499,3.8097 L91.7499,5.3057 L88.2079,5.3057 C88.1919,5.4587 88.1689,5.5787 88.1679,5.6987 C88.1659,7.0457 88.1539,8.3937 88.1749,9.7407 C88.1819,10.1437 88.2609,10.5507 88.3489,10.9477 C88.5669,11.9277 89.3809,12.1407 90.2499,12.0537 C90.7709,12.0007 91.2789,11.8257 91.8319,11.6967 C91.9289,12.1047 92.0339,12.5477 92.1499,13.0287 C91.3129,13.4507 90.4249,13.5837 89.5079,13.5587 C89.2129,13.5497 88.9169,13.4877 88.6259,13.4267 C87.2629,13.1417 86.6179,12.0967 86.5829,10.9287 C86.4869,7.7467 86.4979,4.5637 86.4688685,1.3797 C86.4679,1.3207 86.4909,1.2607 86.5079,1.1837" id="Fill-20"></path>
                <path d="M23.504,5.4659 L23.504,13.3639 L21.696,13.3639 C21.686,13.2039 21.671,13.0669 21.671,12.9279 C21.669,10.2009 21.676,7.4739 21.6609715,4.7469 C21.659,4.4039 21.762,4.2739 22.092,4.1679 C23.559,3.7009 25.048,3.6119 26.561,3.8239 C27.1,3.9009 27.155,4.0119 27.024,4.5559 C26.952,4.8549 26.963,5.2449 26.775,5.4199 C26.645,5.5419 26.239,5.3539 25.954,5.3259 C25.549,5.2879 25.141,5.2359 24.737,5.2559 C24.353,5.2759 23.973,5.3819 23.504,5.4659" id="Fill-22"></path>
                <path d="M84.6915,5.2969 C83.9675,5.2399 83.2885,5.1789 82.6085,5.1379 C82.4405,5.1269 82.2675,5.1699 82.1005,5.2079 C81.2205,5.4069 81.2205,5.4089 81.2205,6.2879 L81.2205,12.8039 L81.2205,13.3499 L79.5515,13.3499 C79.5405,13.2099 79.5205,13.0739 79.5205,12.9389 C79.5185,10.1949 79.5265,7.4529 79.5094744,4.7099 C79.5075,4.3609 79.6225,4.2149 79.9435,4.1209 C81.4565,3.6789 82.9805,3.4829 84.5455,3.8119 C84.8635,3.8779 85.0115,3.9929 84.8855,4.3569 C84.7765,4.6749 84.7465,5.0219 84.6915,5.2969" id="Fill-24"></path>
                <path d="M28.7399,3.9298 L30.4589,3.9298 C30.4689,4.0908 30.4849,4.2288 30.4849,4.3668 C30.4859,7.2028 30.4799,10.0388 30.4929,12.8748 C30.4949,13.2548 30.4069,13.4288 29.9929,13.3958 C29.5879,13.3638 29.1769,13.3888 28.7399,13.3888 L28.7399,3.9298 Z" id="Fill-26"></path>
            </g>
        </g>
    </g>
</svg>