<svg xmlns="http://www.w3.org/2000/svg" xmlns:xlink="http://www.w3.org/1999/xlink" width="200" height="200" viewBox="0 0 200 200"><defs><style>.a{fill:#fff;}.b{fill:#dfa659;}.c{clip-path:url(#a);}.d{clip-path:url(#b);}.e{clip-path:url(#c);}.f{clip-path:url(#e);}.g{clip-path:url(#g);}.h{clip-path:url(#i);}</style><clipPath id="a"><path class="a" d="M348.455,356.383v13.035a3.691,3.691,0,0,0,3.688,3.694H364.1V359.071a29.71,29.71,0,0,1,3.272-13.57,17.463,17.463,0,0,1-11.165-4.935A19.971,19.971,0,0,0,348.455,356.383Z" transform="translate(-348.455 -340.566)"/></clipPath><clipPath id="b"><rect class="a" width="1287.369" height="3432.983"/></clipPath><clipPath id="c"><path class="a" d="M370.871,351.151a19.421,19.421,0,0,1-1.751-16.577,11.736,11.736,0,1,0-3.539,21.445A28.93,28.93,0,0,1,370.871,351.151Z" transform="translate(-351.193 -332.85)"/></clipPath><clipPath id="e"><path class="a" d="M395.246,360.284a13.538,13.538,0,0,1,5.61,1.219l3.007-2.156a23.6,23.6,0,0,0-10.377-19.031,20.324,20.324,0,0,1-27.672,0,23.6,23.6,0,0,0-10.389,19.493v15.479a4.431,4.431,0,0,0,4.476,4.384h23.673a12.8,12.8,0,0,1-1.666-6.315A13.221,13.221,0,0,1,395.246,360.284Z" transform="translate(-355.424 -340.317)"/></clipPath><clipPath id="g"><circle class="a" cx="14.758" cy="14.758" r="14.758"/></clipPath><clipPath id="i"><path class="a" d="M400.577,377.4a7.734,7.734,0,0,0-3.4.784l-14.4-10.347,14.294-10.274a7.737,7.737,0,0,0,3.5.836,7.551,7.551,0,1,0-7.686-7.55,7.414,7.414,0,0,0,.079,1.016l-14.342,10.3a7.753,7.753,0,0,0-5.065-1.882,7.549,7.549,0,1,0,0,15.1,7.76,7.76,0,0,0,5.065-1.882l14.357,10.316a7.691,7.691,0,1,0,7.592-6.419Z" transform="translate(-365.879 -343.304)"/></clipPath></defs><g transform="translate(-860 -1352)"><circle class="b" cx="100" cy="100" r="100" transform="translate(860 1352)"/><g transform="translate(568.865 1079.747)"><g transform="translate(348.455 360.882)"><g class="c"><g transform="translate(-684.932 -1013.395)"><g class="d" transform="translate(0 0)"><rect class="a" width="26.489" height="40.112" transform="translate(681.147 1009.612)"/></g></g></g></g><g transform="translate(356.78 337.421)"><g class="e"><g transform="translate(-693.257 -989.934)"><g class="d" transform="translate(0 0)"><rect class="a" width="27.246" height="31.03" transform="translate(689.473 986.15)"/></g></g></g></g><g transform="translate(369.644 360.125)"><g class="f"><g transform="translate(-706.122 -1012.638)"><g class="d" transform="translate(0 0)"><rect class="a" width="56.005" height="46.923" transform="translate(702.339 1008.855)"/></g></g></g></g><g transform="translate(378.728 330.61)"><g class="g"><g transform="translate(-715.205 -983.123)"><g class="d" transform="translate(0 0)"><rect class="a" width="37.085" height="37.085" transform="translate(711.421 979.339)"/></g></g></g></g><g transform="translate(401.433 369.207)"><g class="h"><g transform="translate(-737.91 -1021.72)"><g class="d" transform="translate(0 0)"><rect class="a" width="49.951" height="56.762" transform="translate(734.126 1017.937)"/></g></g></g></g></g></g></svg>