<svg xmlns="http://www.w3.org/2000/svg" width="32" height="32" viewBox="0 0 32 32">
    <g fill="none" fill-rule="evenodd">
        <path fill="#FAFAFA" d="M-383-120h1920V960H-383z"/>
        <path fill="#FFF" d="M-383-120H97V960h-480z"/>
        <path d="M0 0h32v32H0z"/>
        <path fill="#BDBDBD" d="M14.6 9.724c.52.52.52 1.365 0 1.885l-4.714 4.715 4.714 4.714a1.333 1.333 0 0 1-1.886 1.885l-5.657-5.657a1.333 1.333 0 0 1 0-1.885l5.657-5.657c.52-.52 1.365-.52 1.886 0zM23.933 9.724c.52.52.52 1.365 0 1.885l-4.714 4.715 4.714 4.714a1.333 1.333 0 1 1-1.886 1.885l-5.656-5.657a1.333 1.333 0 0 1 0-1.885l5.656-5.657c.521-.52 1.365-.52 1.886 0z"/>
    </g>
</svg>
