<svg width="16" height="16" viewBox="0 0 16 16" fill="none" xmlns="http://www.w3.org/2000/svg">
<path d="M15.6095 13.7239L9.88562 8L15.6095 2.27614C16.1302 1.75545 16.1302 0.911223 15.6095 0.390524C15.0888 -0.130175 14.2446 -0.130175 13.7239 0.390524L8 6.11438L2.27614 0.390524C1.75545 -0.130175 0.911223 -0.130175 0.390524 0.390524C-0.130175 0.911223 -0.130175 1.75545 0.390524 2.27614L6.11438 8L0.390524 13.7239C-0.130175 14.2446 -0.130175 15.0888 0.390524 15.6095C0.911223 16.1302 1.75545 16.1302 2.27614 15.6095L8 9.88562L13.7239 15.6095C14.2446 16.1302 15.0888 16.1302 15.6095 15.6095C16.1302 15.0888 16.1302 14.2446 15.6095 13.7239Z" fill="white" fill-opacity="0.7"/>
</svg>
