<svg xmlns="http://www.w3.org/2000/svg" width="50" height="50" viewBox="0 0 50 50"><defs><style>.a{fill:#fff;}</style></defs><path class="a" d="M1003.818,400.347a25,25,0,1,0,25,25A25,25,0,0,0,1003.818,400.347ZM991.8,414h24.032a2.936,2.936,0,0,1,2.589,1.564l-14.5,9.622-14.6-9.691c-.018-.012-.038-.018-.056-.029A2.938,2.938,0,0,1,991.8,414Zm24.032,22.864H991.8a2.95,2.95,0,0,1-2.95-2.95V418.983l14.2,9.423a1.58,1.58,0,0,0,1.749,0l13.985-9.282v14.79A2.95,2.95,0,0,1,1015.834,436.864Z" transform="translate(-978.818 -400.347)"/></svg>