<svg xmlns="http://www.w3.org/2000/svg" xmlns:xlink="http://www.w3.org/1999/xlink" width="48" height="48" viewBox="0 0 48 48">
    <defs>
        <path id="a" d="M16.792 0c1.056 0 2.187 1.052 3.649 2.227 1.461 1.176 2.735 1.579 3.79 1.947 2.714.949 6.366.327 7.964 2.246 1.598 1.919 1.598 15.717-2.45 21.949-4.047 6.232-10.724 9.081-12.951 9.081-2.227 0-9.539-3.683-13.076-9.081C.181 22.971-.495 8.471 1.502 6.419c1.996-2.05 6.28-1.565 8.165-2.245 1.002-.361 2.318-1.096 3.477-1.947C14.557 1.192 15.648 0 16.792 0z"/>
    </defs>
    <g fill="none" fill-rule="evenodd">
        <path fill="#FAFAFA" d="M-54-180h1920V900H-54z"/>
        <path fill="#FFF" d="M-54-180h480V900H-54z"/>
        <path fill="#F7F7F7" d="M-54-12h420v72H-54z"/>
        <g transform="translate(7 5)">
            <mask id="b" fill="#fff">
                <use xlink:href="#a"/>
            </mask>
            <use fill="#0035AD" xlink:href="#a"/>
            <path fill="#88A1D9" d="M-1.214 0H17v38H-1.214z" mask="url(#b)"/>
            <ellipse cx="17" cy="19" fill="#FFF" opacity=".3" rx="8.5" ry="8.313"/>
            <path fill="#FFF" d="M12.753 18.995a.81.81 0 0 1 1.145 0l1.666 1.667 5.165-5.164a.792.792 0 1 1 1.12 1.12l-5.726 5.725a.826.826 0 0 1-.011.011l-.012.01v.003c-.31.309-.811.309-1.12 0l-.013-.013-2.214-2.214a.81.81 0 0 1 0-1.145z"/>
        </g>
        <path d="M0 0h48v48H0z"/>
    </g>
</svg>
