<svg xmlns="http://www.w3.org/2000/svg" width="200" height="200" viewBox="0 0 200 200"><defs><style>.a{fill:#dfa659;}.b,.d{fill:#fff;}.c,.e{fill:none;stroke:#dfa659;}.c,.d,.e{stroke-linecap:round;}.c,.d{stroke-miterlimit:10;}.c{stroke-width:7px;}.e{stroke-linejoin:round;stroke-width:5px;}.f,.g{stroke:none;}.g{fill:#dfa659;}</style></defs><g transform="translate(-460 -1352)"><circle class="a" cx="100" cy="100" r="100" transform="translate(460 1352)"/><g transform="translate(-236.464 1261.077)"><path class="b" d="M817.416,233.615H766.6a8.647,8.647,0,0,1-8.649-8.649V157.93a8.647,8.647,0,0,1,8.649-8.65h50.818a8.647,8.647,0,0,1,8.649,8.65v67.036A8.647,8.647,0,0,1,817.416,233.615Z" transform="translate(0)"/><line class="c" x2="18.72" transform="translate(772.287 168.503)"/><line class="c" x2="32.91" transform="translate(772.287 187.479)"/><line class="c" x2="18.72" transform="translate(772.287 206.454)"/><g class="d" transform="translate(5.034 4.978)"><path class="f" d="M 819.9486083984375 235.0948638916016 C 819.2786254882812 235.0948638916016 818.624755859375 234.9628295898438 818.0051879882812 234.7024536132812 L 817.9996337890625 234.7001190185547 L 817.994140625 234.69775390625 C 817.53662109375 234.5033264160156 813.4074096679688 232.6958770751953 809.3532104492188 229.1530151367188 C 806.94677734375 227.0501251220703 805.0215454101562 224.7360076904297 803.6309814453125 222.2749938964844 C 801.8539428710938 219.1300354003906 800.9529418945312 215.7549133300781 800.9529418945312 212.2433929443359 L 800.9529418945312 201.5319061279297 C 800.9529418945312 199.3871765136719 802.3174438476562 197.4845428466797 804.348388671875 196.7974395751953 L 818.3348388671875 192.0392150878906 C 818.855224609375 191.8607482910156 819.398193359375 191.7702484130859 819.9486083984375 191.7702484130859 C 820.4988403320312 191.7702484130859 821.0416259765625 191.8606719970703 821.5618896484375 192.0390167236328 L 835.5537109375 196.799072265625 C 837.5819091796875 197.4875793457031 838.9442749023438 199.388916015625 838.9442749023438 201.5319061279297 L 838.9442749023438 212.2433929443359 C 838.9442749023438 215.7549285888672 838.0432739257812 219.1299743652344 836.2662353515625 222.2747650146484 C 834.8756713867188 224.7355651855469 832.950439453125 227.0494995117188 830.5439453125 229.1522827148438 C 826.6053466796875 232.5937652587891 822.6619262695312 234.3725738525391 821.9114379882812 234.6942138671875 L 821.9017333984375 234.6983642578125 L 821.8920288085938 234.7024536132812 C 821.2724609375 234.9628295898438 820.6185913085938 235.0948638916016 819.9486083984375 235.0948638916016 Z"/><path class="g" d="M 819.9486083984375 194.7702484130859 C 819.7314453125 194.7702484130859 819.5142822265625 194.8060150146484 819.3062744140625 194.8775634765625 L 805.309814453125 199.6392364501953 C 804.4965209960938 199.9143676757812 803.9529418945312 200.67431640625 803.9529418945312 201.5319061279297 L 803.9529418945312 212.2433929443359 C 803.9529418945312 225.3179473876953 818.5462646484375 231.6727294921875 819.1675415039062 231.936767578125 C 819.4183349609375 232.0421600341797 819.6834716796875 232.0948486328125 819.9486083984375 232.0948486328125 C 820.2137451171875 232.0948486328125 820.4788818359375 232.0421600341797 820.7296752929688 231.936767578125 C 821.3509521484375 231.6705169677734 835.9442749023438 225.3179473876953 835.9442749023438 212.2433929443359 L 835.9442749023438 201.5319061279297 C 835.9442749023438 200.67431640625 835.4006958007812 199.9143676757812 834.5874633789062 199.6392364501953 L 820.5910034179688 194.8775634765625 C 820.3829956054688 194.8060150146484 820.165771484375 194.7702484130859 819.9486083984375 194.7702484130859 M 819.9486083984375 188.7702484130859 L 820.95166015625 188.7702484130859 L 822.5426025390625 189.2038269042969 L 836.5199584960938 193.9589538574219 C 839.7605590820312 195.0553436279297 841.9442749023438 198.0999908447266 841.9442749023438 201.5319061279297 L 841.9442749023438 212.2433929443359 C 841.9442749023438 228.8920288085938 825.0226440429688 236.6247253417969 823.0931396484375 237.4516448974609 L 821.961181640625 237.936767578125 L 819.9486083984375 238.0948486328125 C 818.8773803710938 238.0948486328125 817.83251953125 237.8840026855469 816.843017578125 237.4681854248047 C 809.8129272460938 234.4804840087891 797.9529418945312 225.8182067871094 797.9529418945312 212.2433929443359 L 797.9529418945312 201.5319061279297 C 797.9529418945312 198.0999298095703 800.13671875 195.0552673339844 803.3870239257812 193.9556732177734 L 817.373779296875 189.1972961425781 L 818.3135986328125 188.8775634765625 L 819.9486083984375 188.7702484130859 Z"/></g><path class="b" d="M834.587,199.639l-14-4.762a1.976,1.976,0,0,0-1.285,0l-14,4.762a2,2,0,0,0-1.357,1.893v10.711c0,13.075,14.593,19.429,15.215,19.693a2.009,2.009,0,0,0,1.562,0c.621-.266,15.215-6.619,15.215-19.693V201.532a2,2,0,0,0-1.357-1.893Z" transform="translate(5.034 4.978)"/><path class="e" d="M812.823,211.55l5.16,5.16,9.316-9.316" transform="translate(6.005 6.359)"/></g></g></svg>