<svg xmlns="http://www.w3.org/2000/svg" xmlns:xlink="http://www.w3.org/1999/xlink" width="200" height="200" viewBox="0 0 200 200"><defs><style>.a,.b{fill:#fff;}.b{clip-rule:evenodd;}.c{fill:#dfa659;}.d{clip-path:url(#a);}.e{clip-path:url(#b);}.f{clip-path:url(#c);}</style><clipPath id="a"><path class="a" d="M525.046,398.528a15.616,15.616,0,1,1,15.616-15.616A15.618,15.618,0,0,1,525.046,398.528Zm-27.762-48.716v-6.675a2.6,2.6,0,0,1,2.6-2.6h36.437a2.6,2.6,0,0,1,2.6,2.6v6.675a2.6,2.6,0,0,1-2.6,2.6H499.887A2.6,2.6,0,0,1,497.283,349.812ZM562.62,340.6l-6.406-6.406a13.864,13.864,0,0,0-9.813-4.067H492.946a9.543,9.543,0,0,0-9.545,9.542v64.2a9.545,9.545,0,0,0,9.545,9.545h64.2a9.543,9.543,0,0,0,9.542-9.545V350.409A13.865,13.865,0,0,0,562.62,340.6Z" transform="translate(-483.401 -330.124)"/></clipPath><clipPath id="b"><rect class="a" width="1287.895" height="3434.386"/></clipPath><clipPath id="c"><path class="b" d="M513.376,349.914l-9.539,11.105a2.72,2.72,0,0,1-1.962.946h-.088a2.708,2.708,0,0,1-1.929-.812l-5.451-5.554a2.8,2.8,0,0,1,0-3.924,2.687,2.687,0,0,1,3.854,0l3.392,3.452,7.62-8.873a2.7,2.7,0,0,1,3.848-.262A2.817,2.817,0,0,1,513.376,349.914Z" transform="translate(-493.607 -345.308)"/></clipPath></defs><g transform="translate(-1260 -1352)"><circle class="c" cx="100" cy="100" r="100" transform="translate(1260 1352)"/><g transform="translate(834.956 1080.233)"><g transform="translate(483.401 330.124)"><g class="d"><g transform="translate(-691.267 -1149.338)"><g class="e" transform="translate(0 0)"><rect class="a" width="90.857" height="90.857" transform="translate(687.483 1145.552)"/></g></g></g></g><g transform="translate(514.444 375.309)"><g class="f"><g transform="translate(-722.31 -1195.523)"><g class="e" transform="translate(0 0)"><rect class="a" width="28.014" height="24.228" transform="translate(718.526 1191.738)"/></g></g></g></g></g></g></svg>