<svg xmlns="http://www.w3.org/2000/svg" width="50" height="50" viewBox="0 0 50 50"><defs><style>.a{fill:#fff;}</style></defs><path class="a" d="M1123.161,400.347a25,25,0,1,0,25,25A25,25,0,0,0,1123.161,400.347ZM1115.9,438.14h-6.088V419.823h6.088Zm-3.044-20.819h-.04a3.479,3.479,0,1,1,.04,0Zm25,20.819h-6.088v-9.8c0-2.463-.882-4.143-3.085-4.143a3.334,3.334,0,0,0-3.124,2.227,4.167,4.167,0,0,0-.2,1.486V438.14h-6.088s.079-16.6,0-18.317h6.088v2.593a6.045,6.045,0,0,1,5.487-3.023c4.006,0,7.01,2.618,7.01,8.244Z" transform="translate(-1098.161 -400.347)"/></svg>