<svg width="48" height="48" viewBox="0 0 48 48" fill="none" xmlns="http://www.w3.org/2000/svg">
<path d="M24 0C10.7422 0 0 10.7422 0 24C0 37.2578 10.7422 48 24 48C37.2578 48 48 37.2578 48 24C48 23.0312 47.9297 22.0781 47.8125 21.1328C47.0156 21.6797 46.0469 22 45 22C42.8438 22 41.0234 20.625 40.3203 18.7188C39.0703 19.5156 37.5938 20 36 20C31.5781 20 28 16.4219 28 12C28 10.5312 28.4219 9.17188 29.1172 7.98438C29.0781 7.99219 29.0391 8 29 8C26.2344 8 24 5.76563 24 3C24 1.88281 24.375 0.867188 24.9922 0.0390615C24.6641 0.0234375 24.3359 0 24 0ZM39 0C37.3438 0 36 1.34375 36 3C36 4.65625 37.3438 6 39 6C40.6562 6 42 4.65625 42 3C42 1.34375 40.6562 0 39 0ZM20.1016 4.375C20.5 6.95313 22 9.17188 24.0938 10.5469C24.0312 11.0234 24 11.5156 24 12C24 18.6172 29.3828 24 36 24C36.9922 24 37.9844 23.875 38.9375 23.625C40.3047 24.875 42.0312 25.7031 43.9062 25.9375C42.9297 36.0625 34.375 44 24 44C12.9688 44 4 35.0312 4 24C4 14.3047 10.9375 6.19531 20.1016 4.375ZM36 10C34.8984 10 34 10.8984 34 12C34 13.1016 34.8984 14 36 14C37.1016 14 38 13.1016 38 12C38 10.8984 37.1016 10 36 10ZM20 12C18.8984 12 18 12.8984 18 14C18 15.1016 18.8984 16 20 16C21.1016 16 22 15.1016 22 14C22 12.8984 21.1016 12 20 12ZM46 12C44.8984 12 44 12.8984 44 14C44 15.1016 44.8984 16 46 16C47.1016 16 48 15.1016 48 14C48 12.8984 47.1016 12 46 12ZM14 18C11.7891 18 10 19.7891 10 22C10 24.2109 11.7891 26 14 26C16.2109 26 18 24.2109 18 22C18 19.7891 16.2109 18 14 18ZM24 22C22.8984 22 22 22.8984 22 24C22 25.1016 22.8984 26 24 26C25.1016 26 26 25.1016 26 24C26 22.8984 25.1016 22 24 22ZM17 30C15.3438 30 14 31.3438 14 33C14 34.6562 15.3438 36 17 36C18.6562 36 20 34.6562 20 33C20 31.3438 18.6562 30 17 30ZM31 32C29.3438 32 28 33.3438 28 35C28 36.6562 29.3438 38 31 38C32.6562 38 34 36.6562 34 35C34 33.3438 32.6562 32 31 32Z" fill="white"/>
</svg>
