<svg xmlns="http://www.w3.org/2000/svg" width="60" height="60" viewBox="0 0 60 60">
    <defs>
        <linearGradient id="a" x1="0%" y1="50%" y2="50%">
            <stop offset="0%" stop-color="#D30200"/>
            <stop offset="100%" stop-color="#A80100"/>
        </linearGradient>
        <linearGradient id="b" x1="0%" y1="50%" y2="50%">
            <stop offset="0%" stop-color="#D30200"/>
            <stop offset="100%" stop-color="#A80100"/>
        </linearGradient>
        <linearGradient id="c" x1="0%" y1="50%" y2="50%">
            <stop offset="0%" stop-color="#D30200"/>
            <stop offset="100%" stop-color="#A80100"/>
        </linearGradient>
    </defs>
    <g fill="none" fill-rule="evenodd">
        <path fill="#FAFAFA" d="M-540-20h1920v1080H-540z"/>
        <path d="M-60-20h1440V80H-60z"/>
        <g>
            <path fill-rule="nonzero" d="M0 0h60v60H0z"/>
            <g fill-rule="nonzero">
                <path fill="#780200" d="M36.635 42.875c-1.74 1.126-3.95 2.375-6.632 3.75v-3.75zm-6.632-29.583c2.255 2.054 4.038 3.41 5.348 4.071 1.31.66 3.694 1.664 7.152 3.012.014 3.177-.016 5.955-.089 8.333h-12.41z"/>
                <path fill="#A80100" d="M30.003 42.875v3.75c-2.681-1.375-4.892-2.624-6.631-3.75h6.631zm0-29.583v15.416h-12.41a240.787 240.787 0 0 1-.09-8.333c3.458-1.348 5.843-2.352 7.153-3.012 1.31-.66 3.092-2.017 5.347-4.071z"/>
            </g>
            <path fill="url(#a)" fill-rule="nonzero" d="M51.995 43.34a4.332 4.332 0 0 0-2.49 3.427 3.078 3.078 0 0 1-2.696 2.696 4.332 4.332 0 0 0-3.428 2.49 3.078 3.078 0 0 1-3.397 1.732 4.332 4.332 0 0 0-4.03 1.31 3.078 3.078 0 0 1-3.766.596 4.332 4.332 0 0 0-4.237 0c-1.242.696-2.8.45-3.766-.597a4.332 4.332 0 0 0-4.03-1.31 3.078 3.078 0 0 1-3.397-1.73 4.332 4.332 0 0 0-3.427-2.49 3.078 3.078 0 0 1-2.696-2.697 4.332 4.332 0 0 0-2.49-3.427 3.076 3.076 0 0 1-.723-.464l4.37-.001c3.982 5.788 10.652 9.583 18.208 9.583 7.556 0 14.226-3.795 18.208-9.583h4.51a3.076 3.076 0 0 1-.723.465zM35.955 5.062a4.332 4.332 0 0 0 4.029 1.31 3.078 3.078 0 0 1 3.397 1.73 4.332 4.332 0 0 0 3.428 2.49 3.078 3.078 0 0 1 2.696 2.697 4.332 4.332 0 0 0 2.49 3.428c1.294.595 2.01 2 1.732 3.397a4.332 4.332 0 0 0 1.309 4.03 3.078 3.078 0 0 1 .596 3.766c-.146.26-.263.532-.351.81a2.531 2.531 0 0 0-.253-.012H52.02C51.17 17.292 41.636 8.293 30 8.293c-11.636 0-21.17 8.999-22.021 20.417H4.972c-.04 0-.08 0-.119.002a4.165 4.165 0 0 0-.346-.801 3.078 3.078 0 0 1 .597-3.766 4.332 4.332 0 0 0 1.31-4.03 3.078 3.078 0 0 1 1.73-3.397 4.332 4.332 0 0 0 2.49-3.428 3.078 3.078 0 0 1 2.697-2.696 4.332 4.332 0 0 0 3.427-2.49c.596-1.294 2.001-2.01 3.398-1.732a4.332 4.332 0 0 0 4.03-1.309 3.078 3.078 0 0 1 3.765-.596 4.332 4.332 0 0 0 4.237 0 3.078 3.078 0 0 1 3.766.596z"/>
            <path fill="url(#b)" fill-rule="nonzero" d="M30 51.208c-6.816 0-12.867-3.273-16.668-8.332h1.593c3.592 4.327 9.012 7.082 15.075 7.082 6.063 0 11.483-2.755 15.075-7.082h1.593c-3.801 5.06-9.852 8.332-16.668 8.332zm0-41.666c10.945 0 19.918 8.44 20.768 19.166h-1.255C48.668 18.673 40.254 10.792 30 10.792c-10.254 0-18.668 7.88-19.513 17.916H9.232C10.082 17.982 19.055 9.542 30 9.542z"/>
            <rect width="55.833" height="11.667" x="2.083" y="29.958" fill="url(#c)" fill-rule="nonzero" rx="2.889"/>
            <g fill="#FFF">
                <path d="M50.821 37.097c-.049.143-.077.299-.15.428-.206.363-.566.492-.949.556a3.197 3.197 0 0 1-1.512-.112c-.142-.045-.24-.079-.167-.263.051-.128.062-.272.096-.436.444.232.892.256 1.347.225a.992.992 0 0 0 .287-.05c.14-.055.282-.123.296-.304.015-.203.007-.413-.197-.518a18.03 18.03 0 0 0-1.108-.523c-.78-.337-.872-1.136-.487-1.652.244-.328.615-.462.999-.469.394-.007.79.071 1.186.116.041.005.08.037.12.057l-.118.543c-.325-.047-.642-.105-.961-.132-.131-.01-.27.039-.401.072-.189.05-.32.175-.33.368-.007.182.035.37.229.46.324.152.647.307.979.442.45.18.777.453.81.975 0 .007.02.012.031.018v.199zM21.643 32.458c.218.137.353.305.28.589-.07.266-.304.416-.578.342-.247-.066-.41-.36-.307-.6.054-.123.163-.221.248-.33h.357zM29.803 35.82h-.005c0-.297-.01-.594.004-.89.008-.162-.046-.222-.203-.227-.184-.007-.366-.047-.55-.045-.565.003-.996.35-1.091.9-.04.224-.035.46-.02.688.036.556.354.924.9.983.23.025.476-.064.712-.112.185-.036.255-.166.254-.346-.002-.317 0-.634 0-.95m-2.344 2.84c.478.05.923.132 1.368.134.623.003 1.017-.361.97-1.094-.2.05-.396.109-.596.147-.548.105-1.054.012-1.485-.36-.302-.262-.458-.603-.54-.99-.12-.568-.062-1.113.224-1.616.328-.578.856-.839 1.508-.876.502-.03.99.055 1.476.162.093.02.139.064.138.173-.004 1.215.02 2.432-.01 3.646-.02.766-.513 1.306-1.31 1.41-.577.075-1.144.054-1.705-.111-.11-.032-.155-.054-.116-.184.048-.16.06-.329.078-.441M37.333 32.99l-.209.592c-.414-.165-.821-.297-1.272-.301-.75-.005-1.373.393-1.624 1.129-.24.701-.232 1.419.056 2.11.272.651.804.94 1.487.974.484.023.945-.087 1.406-.3.066.206.129.4.206.645-.277.077-.54.172-.81.222-.527.1-1.062.126-1.582-.027-.852-.25-1.381-.828-1.583-1.687-.23-.985-.187-1.936.438-2.788.385-.526.916-.818 1.555-.897.762-.094 1.425.027 1.932.328M38.622 35.642h1.914c.03-.61-.347-1.052-.877-1.068-.539-.016-1.013.41-1.037 1.068m2.697.585h-2.718c.015.856.47 1.243 1.176 1.26.378.008.758-.073 1.157-.116l.085.538c-.182.05-.364.113-.552.15-.53.11-1.057.105-1.563-.11-.651-.278-.953-.816-1.04-1.484-.063-.483-.035-.966.16-1.425.465-1.096 1.778-1.35 2.603-.791.42.284.566.724.634 1.195.035.246.038.497.058.783M23.775 34.727v3.299h-.73c-.005-.063-.012-.12-.012-.178 0-1.155.002-2.311-.003-3.467-.001-.145.036-.191.19-.225a6.248 6.248 0 0 1 1.52-.15c.873.023 1.446.54 1.46 1.469.01.785.015 1.57.033 2.355.003.168-.054.212-.215.21-.527-.004-.527.001-.527-.518 0-.595.01-1.19-.007-1.784a2.197 2.197 0 0 0-.129-.648c-.103-.295-.539-.496-.92-.452-.213.025-.425.057-.66.089M16.283 34.096h.749v3.845c-.321.048-.646.111-.974.14-.26.023-.523-.002-.785.006a1.315 1.315 0 0 1-1.352-1.12c-.064-.399-.073-.81-.083-1.216-.013-.547-.003-1.094-.003-1.653h.748v.205c0 .588-.007 1.176.004 1.764.005.253.028.51.08.76.086.404.39.627.809.629h.807v-3.36zM10.788 33.443H9.167v-.652h4.013v.655h-1.618v.252c0 1.368-.003 2.736.005 4.103.001.197-.06.255-.248.239-.169-.014-.34-.003-.53-.003v-4.594zM45.212 32.952l.686-.105v1.199h1.498v.623H45.92c-.007.064-.016.114-.017.164 0 .561-.006 1.123.003 1.684.003.168.036.337.073.503.09.408.43.497.792.46.217-.021.429-.094.659-.148l.132.555c-.348.176-.718.231-1.1.22a2.128 2.128 0 0 1-.368-.054c-.568-.119-.837-.554-.851-1.041-.04-1.326-.036-2.652-.048-3.979 0-.024.01-.05.017-.081M18.96 34.736v3.29h-.753c-.004-.066-.01-.123-.01-.181-.002-1.136.001-2.273-.005-3.409 0-.143.042-.197.18-.241a4.153 4.153 0 0 1 1.862-.143c.224.032.247.078.193.305-.03.124-.026.287-.104.36-.054.05-.223-.028-.342-.04-.169-.015-.339-.037-.507-.029-.16.009-.319.053-.514.088M44.455 34.665c-.302-.023-.585-.049-.868-.066-.07-.004-.142.013-.212.03-.366.082-.366.083-.366.45v2.942h-.696c-.004-.059-.013-.115-.013-.171 0-1.144.003-2.286-.004-3.43-.001-.145.047-.205.18-.245.63-.184 1.266-.265 1.918-.128.132.027.194.075.142.227-.046.132-.058.277-.081.391M21.142 34.096h.716c.004.067.01.124.01.182.001 1.181-.001 2.363.004 3.545 0 .158-.036.23-.208.217-.169-.013-.34-.003-.522-.003v-3.941z"/>
            </g>
        </g>
    </g>
</svg>
