<svg xmlns="http://www.w3.org/2000/svg" xmlns:xlink="http://www.w3.org/1999/xlink" version="1.0" x="0px" y="0px" viewBox="0 0 628 124" enable-background="new 0 0 628 124" xml:space="preserve" id="" class="svg replaced-svg" fill="#FFF">
<path fill-rule="evenodd" clip-rule="evenodd" d="M167.03,54.03c-6.28,1.03-12.17,2.5-17.65,4.42c0.66,4.41,1.62,7.08,2.88,8.02  h3.31c3.18,0,5.74-0.75,7.66-2.25C165.06,60.52,166.32,57.12,167.03,54.03z M139.46,50.72c1.55-1.78,3.83-1.62,6.83,0.49  c9.14-3.04,16.61-4.64,22.42-4.78c1.36-1.45,3.29-0.84,5.77,1.83c2.81,3.23,1.92,9.47-2.67,18.7c1.73,1.13,1.55,2.63-0.56,4.5  c-1.6,1.03-4.41,1.43-8.44,1.2c-2.2-0.05-4.48,0.279-6.82,0.979c-1.36,0.561-2.35,0.49-2.95-0.209c-0.94,0.189-1.88,0.56-2.82,1.13  c-1.08,0.509-2.25-0.07-3.51-1.761c-1.55-2.11-2.91-4.34-4.08-6.68C138.36,57.92,137.31,52.78,139.46,50.72z M129.9,39.4  c-0.28-1.73,0.82-2.48,3.31-2.25c1.64,0.19,3.09-0.56,4.36-2.25c5.72-8.11,11.48-15.33,17.29-21.66c2.67-2.62,3.96-2.46,3.87,0.5  c-1.03,5.81-3.26,11.01-6.68,15.6c-1.55,2.11-2.79,4.15-3.73,6.12c4.22-0.51,9.14-1.29,14.77-2.32c1.36-0.14,3.35-0.47,5.98-0.98  c-0.52-3.75-1.25-6.61-2.18-8.58c-0.33-1.31-0.12-2.3,0.63-2.95c1.17-0.52,3.02,0.23,5.55,2.25c2.91,2.43,4.69,6.32,5.35,11.67  c0.23,1.59,0.02,2.97-0.63,4.15c-0.33,0.61-0.64,1.54-0.92,2.81c-0.33,0.84-1.03,0.75-2.11-0.28c-0.28-0.33-0.7-0.14-1.26,0.56  c-1.74,1.45-2.89,0.09-3.45-4.08c-9.75,2.11-19.1,4.95-28.05,8.51c-1.79,0.7-4.01,0.35-6.68-1.05c-3.24-1.69-4.97-3.19-5.21-4.5  L129.9,39.4z"></path>
<path fill-rule="evenodd" clip-rule="evenodd" d="M254.14,32.02c1.36,1.03,1.97,2.18,1.83,3.44c-0.33,1.55-1.15,2.21-2.46,1.97  c-1.12-0.14-1.85-0.94-2.18-2.39c-0.09-0.7,0.05-1.73,0.42-3.09c0.29-0.71,0.96-0.82,2.04-0.36L254.14,32.02z M205.35,59.02  c0.56-2.16,1.12-2.14,1.69,0.07c0.28,2.811,0.7,4.9,1.26,6.25c1.17,1.65,1.5,3.29,0.99,4.93c-1.32,2.061-2.56,2.62-3.73,1.681  c-2.11-2.1-3.26-4.5-3.45-7.17c-0.33-3.23,0.38-4.61,2.11-4.15C204.64,60.77,205.02,60.24,205.35,59.02z M211.32,37.5  c0.85,0.94,0.94,2.23,0.28,3.87c-1.03,2.53-2.43,2.95-4.21,1.26c-1.41-1.36-3.03-2.57-4.85-3.65c-1.08-0.52-1.65-1.22-1.69-2.11  c0-2.16,1.47-3.07,4.43-2.74C207.67,34.5,209.68,35.63,211.32,37.5z M215.05,37.01c-0.23-1.41,0.49-1.81,2.18-1.2  c1.27,1.5,2.44,2.68,3.52,3.52c0.7-0.19,1.07,0.19,1.12,1.12c0.05,0.8,0.38,1.55,0.98,2.25c-0.18,1.65-1.07,2.23-2.67,1.76  c-1.78-0.93-3.21-2.25-4.29-3.93L215.05,37.01z M248.8,33.84c0.75,1.18,1.08,2.33,0.99,3.45c-1.04,1.13-1.95,1.2-2.75,0.21  c-0.89-1.17-1.22-2.34-0.98-3.51c0.37-1.46,1.24-1.57,2.6-0.36L248.8,33.84z M223.63,35.04c0.94,0.84,1.71,1.83,2.32,2.95  c0.47,0.85,0.23,1.55-0.7,2.11c-0.99,0.57-1.95,0.28-2.89-0.84c-0.7-1.13-1.12-2.27-1.26-3.45  C221.14,34.69,221.99,34.43,223.63,35.04z M228.83,51.49c0.52-1.26,1.34-1.12,2.46,0.43c1.27-0.29,2.96-1.01,5.07-2.18  c1.4-3.75,2.67-6.19,3.79-7.32c1.41-1.36,2.56-1.29,3.45,0.21c0.7,1.6,0.54,2.93-0.49,4.01c-0.99,1.27-1.97,2.16-2.96,2.67  c0.61,0.85,0.4,1.78-0.63,2.82c-2.25,1.68-4.99,2.83-8.23,3.44c-0.28,0.66-0.47,1.34-0.56,2.04c3.28-0.47,6.75-1.29,10.41-2.46  c1.31-0.56,2.69-0.82,4.15-0.77c0.46-2.54,1.68-3.5,3.65-2.89c2.35,1.04,3.52,3.71,3.52,8.02c-0.14,5.81-1.97,10.57-5.49,14.271  c-1.12,1.13-2.41,1.689-3.86,1.689c-1.46,0.091-2.98,0.61-4.57,1.55c-1.27,0.7-2.16,0.771-2.68,0.211  c-0.84-0.561-1.43-1.461-1.75-2.67c-0.24-0.851-0.38-1.761-0.43-2.75c-0.18-0.561,0.21-0.841,1.2-0.841  c1.41,0.141,2.62,0.19,3.66,0.141c2.39-0.471,4.21-2.2,5.48-5.2c1.17-3.24,1.59-6.54,1.27-9.92c-1.08,0.19-2.79,1.25-5.14,3.17  c-2.48,1.83-6.3,3.35-11.46,4.57c-1.69,0.47-2.81-0.07-3.37-1.62c-0.8-2.91-0.29-4.22,1.54-3.94  C227.19,56.02,227.85,53.79,228.83,51.49z M227.29,45.52c2.81-0.52,5.88-1.25,9.21-2.18c1.31-0.52,1.71-0.1,1.19,1.26  c-0.89,1.55-1.99,2.63-3.3,3.24c-2.39,0.98-4.81,1.9-7.25,2.74c-1.82,0.42-2.71-0.35-2.67-2.32  C224.47,46.67,225.41,45.75,227.29,45.52z M236.43,28.43c1.4-0.28,2.03,0.42,1.89,2.11c-0.14,1.03-0.91,1.88-2.32,2.53  c-1.03,0.52-2.18,0.77-3.44,0.77c-1.03-0.09-1.78-0.63-2.25-1.61c-0.56-1.5-0.1-2.39,1.4-2.67  C233.26,29.28,234.83,28.9,236.43,28.43z M246.9,27.59c0.61,0.14,1.41,0.02,2.39-0.35c-0.09-0.57-0.4-1.11-0.91-1.62L246.9,27.59z   M226.37,28.43c-0.14-0.98-0.56-1.66-1.27-2.04c-0.56,1.08-0.93,1.95-1.12,2.6C224.78,28.85,225.57,28.67,226.37,28.43z   M236.78,37.08c-1.41,0.28-2.75,0.89-4.01,1.83c-0.7,0.61-0.38,1.33,0.98,2.18c0.52-0.42,1.13-0.85,1.83-1.27  C236.14,39.35,236.54,38.44,236.78,37.08z M226.51,23.58c1.13,0.61,1.97,1.64,2.53,3.09c0.66,1.46,0.57,2.77-0.28,3.94l-1.62,0.63  c1.08,1.04,1.9,1.95,2.47,2.75c0.32,0.65,0.58,1.4,0.77,2.25c1.78-0.61,3.66-1.22,5.62-1.83c0.47-0.19,0.89-0.26,1.27-0.21  c0.42-1.08,1.03-1.6,1.83-1.55c0-1.5,0.26-2.91,0.77-4.22c0.61-0.56,1.52-0.77,2.74-0.63l1.41-1.97c-1.31-0.33-2.6-0.73-3.87-1.2  c-0.7,1.32-2.2,2.3-4.5,2.96c-1.59,0.47-3.09,0.61-4.5,0.42c-1.26-0.24-1.94-0.92-2.04-2.04c-0.28-1.31,0.35-2.04,1.9-2.18  c2.11-0.56,4.15-1.15,6.12-1.76c0.8-0.23,1.59,0.03,2.39,0.78c-0.33-0.71,0.28-1.76,1.83-3.17c1.59-1.92,3.4-3.84,5.41-5.76  c1.22-1.27,2.39-0.96,3.52,0.91c0.7,1.13,0.51,2.06-0.57,2.81c-1.64,1.17-3.39,2.58-5.27,4.22c0.61,0.33,1.34,0.59,2.18,0.77  c1.64-1.92,3.24-3.67,4.78-5.27c0.61-0.75,1.53-0.65,2.74,0.28c1.13,0.94,1.11,1.92-0.07,2.96c-1.45,0.93-2.6,1.87-3.44,2.81  c1.45,0.65,2.44,1.64,2.95,2.95c0.42,1.5,0.1,2.56-0.98,3.17c-1.55,0.61-3.47,1.4-5.77,2.39c-1.45,0.65-3.14,1.17-5.06,1.54  c1.55,1.18,2.53,2.68,2.95,4.5c0.1,2.49-0.56,3.47-1.97,2.96c-0.89-1.08-1.8-2.35-2.74-3.8c-0.61,0.56-0.91,1.1-0.91,1.62  c0.84,0.98,0.84,1.78,0,2.39c-1.22,0.75-2.51,1.33-3.87,1.75c-0.8,0.33-1.38,0.22-1.76-0.35c-0.7,1.18-1.8,1.46-3.3,0.85  c-1.55-0.75-2.6-2.18-3.17-4.29c-0.28-1.45-0.75-2.88-1.4-4.29c-0.52-0.8-0.68-1.71-0.5-2.74c-1.73,0.65-3.28,1.52-4.64,2.6  c-1.45,1.03-2.48,1.15-3.09,0.35c-1.45-2.53-1.38-3.91,0.21-4.15c1.17-0.23,2.27-1.71,3.31-4.43c-1.64-0.09-3.1-0.07-4.36,0.07  c-1.92,0.14-3.24-0.35-3.94-1.47c-1.92-2.68-3.87-4.36-5.84-5.07c-1.59-0.51-2.06-1.26-1.4-2.25c1.12-1.73,2.93-2.41,5.41-2.04  c2.72,0.52,4.99,2.7,6.82,6.54c0.85-0.04,1.31-0.56,1.41-1.54c0.19-2.82,0.82-4.69,1.9-5.63c1.59-1.17,2.46-0.89,2.6,0.84  c0.04,1.22-0.17,2.18-0.64,2.89c-1.26,1.45-2.06,2.67-2.39,3.65c0.8-0.04,1.65,0.1,2.54,0.43c0.51-1.22,1-2.53,1.47-3.94  c0.24-0.56,0.96-0.94,2.18-1.13c1.13-0.42,3.03-0.77,5.7-1.05l-0.14-3.87c0.14-1.22,1.59-1.29,4.36-0.21  c1.22,0.38,2.06,1.41,2.53,3.09c2.15,0.52,3.04,1.39,2.67,2.61c-0.47,0.98-1.83,1.89-4.08,2.74c-4.69,1.31-8.25,1.69-10.69,1.12  L226.51,23.58z"></path>
<path fill-rule="evenodd" clip-rule="evenodd" d="M290.92,57.05c0.33,1.83,0.84,3.261,1.54,4.29c0.57,1.12,0.22,1.591-1.05,1.4  c-1.78-0.471-3.19-1.521-4.22-3.16c-1.87-3.28-2.3-5.53-1.26-6.75c0.42-0.66,0.96-0.8,1.61-0.42c0.38,0.33,0.75,0.58,1.13,0.77  C289.89,53.6,290.64,54.89,290.92,57.05z M292.46,28.5c1.93-1.12,3.8-1.87,5.63-2.25c3.42-1.22,6.4-1.01,8.93,0.63  c-2.58-2.95-5.06-5.01-7.45-6.18c-1.079-0.47-2.159,0.11-3.239,1.75c-1.26,2.11-2.83,4.34-4.71,6.68L292.46,28.5z M290.5,19.43  c1.64-1.97,3.46-3.44,5.48-4.43c-0.19-1.55,0.8-2.27,2.951-2.18c3.849,0.05,7.079,1.31,9.709,3.8c2.671,2.62,5.65,5.08,8.93,7.38  c5.431,3.52,10.851,7.31,16.241,11.39c2.859,2.11,3.77,3.66,2.739,4.64c-1.12,0.89-2.48,1.03-4.08,0.42  c-0.79-0.37-1.5-0.18-2.109,0.57c-0.98,1.4-2.581,1.43-4.78,0.07c-6-3.89-11.48-8.16-16.45-12.8c-0.52,0.61-0.8,1.34-0.84,2.18  c-0.15,0.75-0.54,1.48-1.2,2.18c-0.8,0.94-1.729,1.69-2.811,2.25v2.67c1.36-0.61,2.671-0.68,3.931-0.21  c0.75,0.38,1.62,0.68,2.609,0.92c1.311,0.04,2.081,0.96,2.32,2.74c0.14,2.53-0.989,4.29-3.38,5.27c-1.829,0.75-3.699,1.38-5.62,1.9  l-0.279,9.49c2.149-2.39,4.279-4.92,6.39-7.59c1.27-1.88,2.86-2.42,4.79-1.62c1.92,0.8,3.11,2.27,3.58,4.43  c0.05,1.08-1.051,1.83-3.301,2.25c-2.3,0.56-4.709,1.64-7.25,3.23c-1.5,0.85-2.899,1.62-4.209,2.32l-0.36,2.61  c6.85-0.241,11.72,0.209,14.63,1.329c2.34,1.03,3.051,2.95,2.11,5.771c-1.171,2.9-3.141,3.89-5.91,2.95  c-2.011-0.7-4.57-1.03-7.66-0.98c-10.64,0.51-16.88,1.26-18.71,2.25c-1.5,0.65-2.95,0.14-4.35-1.55c-0.8-0.94-1.41-1.85-1.83-2.74  c-0.85-1.779-0.26-2.96,1.76-3.521c3.84-1.169,7.94-2.009,12.3-2.529c0.14-4.59,0.09-9.28-0.14-14.06  c-2.02,0.65-3.66,0.37-4.92-0.85l-2.18-2.18c-1.36-1.59-1.01-3.07,1.05-4.42c2.02-1.22,4.13-2.09,6.33-2.61v-3.79  c-3.23-0.38-5.23-1.67-5.98-3.87c-4.78,5.72-9.16,9.89-13.14,12.52c-2.58,1.78-3.38,0.67-2.4-3.31c0.38-1.88,1.2-3.66,2.47-5.34  C281.24,30.61,285.76,24.96,290.5,19.43z"></path>
<path fill-rule="evenodd" clip-rule="evenodd" d="M357.64,58.59c0.24-2.2,0.5-3.56,0.78-4.07l-4.01,1.26  c-0.471,0.89-0.54,1.55-0.21,1.97c0.649,0.14,1.149,0.54,1.479,1.2L357.64,58.59z M394.21,40.88c-1.22,1.17-2.67,2.04-4.36,2.6  c-0.189,1.73-0.28,3.47-0.28,5.2c0.931-0.28,1.94-0.75,3.021-1.4c1.17-2.25,1.87-4.53,2.11-6.83L394.21,40.88z M380.85,44.67  c-1.13,0.1-1.92,0.57-2.39,1.41c-0.1,2.02,0.09,3.96,0.56,5.84c1.12-0.33,2.23-0.47,3.3-0.43c0.051-3.23,0.171-5.5,0.36-6.82H380.85  z M360.811,57.96c1.779-0.56,2.879-0.07,3.3,1.48c0.419,1.121-0.141,2.3-1.681,3.51l-5,1.41c1.03,1.029,1.2,2.81,0.5,5.34  c-0.52,1.689-1.479,2.25-2.89,1.689c-1.08-1.729-1.4-3.789-0.979-6.189l-2.11,0.5c-2.91,0.56-4.24,0.02-4.011-1.62  c0.24-1.03,1.311-2.27,3.24-3.729c-0.75-0.181-1.199-1.121-1.34-2.811c-1.41,0.42-2.63,0.96-3.66,1.62  c-0.14,3.04,0.17,5.83,0.92,8.37c0.33,1.21,0.23,2.46-0.28,3.72c-0.47,0.8-0.609,1.71-0.43,2.74c0.101,0.75-0.25,1.199-1.05,1.34  c-1.311-0.05-2.229-1.45-2.74-4.22c-0.939-4.03-0.989-8.98-0.14-14.831c0.42-3.1,1.24-4.67,2.46-4.72  c0.93,0.1,1.641,1.01,2.109,2.75c2.15-1.93,8.41-4.06,18.771-6.4c2.58-1.08,4.34-0.66,5.27,1.26  c2.021,4.78,2.491,10.39,1.411,16.811c0.52-1.641,1.899-2.601,4.149-2.891c1.73-0.229,3.771-0.46,6.12-0.7v-5.2  c-4.181,1.08-6.99-0.09-8.439-3.52c-2.771-6.56-3.561-10.75-2.391-12.58c0.649-1.17,1.26-2.23,1.83-3.17  c0.65-1.5,1.569-1.8,2.74-0.91c0.229,0.51,0.63,1.08,1.189,1.69c1.36-0.47,3.03-0.64,5-0.5l0.42-0.42  c-0.05-3.37,0.11-6.94,0.49-10.69c0.42-2.76,1.57-4.33,3.45-4.71c1.729-0.51,2.83,0.47,3.3,2.96c0.229,2.15,0.189,6.23-0.14,12.23  c3.14-0.47,5.319-0.33,6.54,0.42c-0.051-0.61,0-1.29,0.14-2.04c0.189-1.54,1.24-1.85,3.16-0.91c2.44,1.31,3,3.75,1.69,7.31  c-1.36,2.58-2.44,5.16-3.23,7.74c-0.33,1.78-1.62,3.21-3.87,4.29c-1.74,0.61-3.42,1-5.061,1.19v6.4  c1.681,0.28,3.351,0.42,4.991,0.42c-0.75-2.25-0.07-3.7,2.039-4.36c1.83-0.47,3.211,0.54,4.15,3.031  c1.45,3.319,1.52,6.75,0.21,10.259c-0.521,1.271-1.69,1.781-3.521,1.551c-1.5-0.33-2.3-1.92-2.39-4.78v-3.31  c-4.12,2.909-8.689,4.739-13.71,5.489c-2.479,0.37-4.359,0.581-5.63,0.631c-1.96-0.09-3.11-1.2-3.44-3.311  c-0.89,1.18-1.619,2.63-2.18,4.36c-0.42,0.85-0.84,1.34-1.271,1.48c-1.029,0.609-1.779,1.31-2.25,2.109  c-0.979,1.029-1.959,1.01-2.949-0.07c-0.66-0.89-1.29-1.569-1.9-2.039c-0.18-0.471-0.26-0.94-0.21-1.4  c0.24-1.04,0.28-1.88,0.141-2.54c-0.28-0.93,0.379-1.38,1.97-1.33c1.5,0.09,2.39-1.391,2.67-4.43c0.66-6.99,0.47-11.21-0.56-12.661  c-0.42,0.66-1.271,1.27-2.53,1.83c0.189,1.5-0.12,2.58-0.91,3.23L360.811,57.96z M360.18,37.36c-2.16,0.7-4.04,1.48-5.63,2.32  c-0.42,1.03-0.16,2.09,0.77,3.16c1.181-0.37,2.421-0.7,3.73-0.98c1.41-1.87,2.229-3.37,2.46-4.5H360.18z M365.59,17.18  c4.41-0.94,7.12,0.38,8.16,3.94c0.42,1.55-0.45,2.48-2.61,2.81c-2.43,0.38-4.82,0.75-7.17,1.13c-2.43,0.32-4.31,1.33-5.62,3.02  c-0.85,1.12-1.619,2.3-2.32,3.51c3.091-0.51,6.331-1.1,9.701-1.75c3.229-0.61,4.76,0.02,4.569,1.9c-0.47,3.56-1.71,7-3.73,10.33  c0.331,1.5-1.069,2.79-4.209,3.87c-2.771,0.7-5.351,1.66-7.74,2.88c-2.39,1.6-4.38,0.56-5.98-3.09  c-2.479-5.67-2.79-9.85-0.909-12.52c1.729-2.06,3.839-2.41,6.33-1.05c0.8-1.97,2.079-4.03,3.869-6.19  c-4.65,1.41-7.949,1.43-9.92,0.07c-2.199-1.36-2.74-3-1.62-4.92c1.271-2.2,3.591-3.28,6.971-3.24l11.029-0.42L365.59,17.18z"></path>
<path fill-rule="evenodd" clip-rule="evenodd" d="M462.41,77.37c-0.33,1.64-0.82,1.64-1.48,0c-0.75-1.13-1.26-2.32-1.54-3.59  c-0.52-8.011-1.01-17.01-1.479-27c-1.311,0.24-2.721,0.47-4.221,0.71c-0.89,0.23-1.779-0.12-2.67-1.06  c-0.99-1.08-1.479-2.09-1.479-3.02c-0.04-1.41,0.66-2.37,2.11-2.88c1.129-0.66,2.129-1.34,3.029-2.04c1.17,0,2.41-0.26,3.721-0.78  c0-1.08,0.05-2.15,0.14-3.23c-0.79,0.61-1.66,1.38-2.601,2.32c-1.029,0.75-1.1,0.58-0.209-0.49c0.89-1.27,1.709-2.72,2.459-4.36  c0.28-1.64,0.99-3.26,2.11-4.86c-2.16,0.75-3.59,0.4-4.29-1.05c-0.649-2.11-0.21-3.63,1.34-4.57c0.79-0.56,1.851-0.98,3.16-1.27  c1.83-0.6,3.7-1.28,5.63-2.03c0.75-0.47,1.68-0.85,2.811-1.13c1.55-0.09,2.479,0.56,2.81,1.97c0.851,0.37,1.34,1.45,1.48,3.23  c0.14,1.36-0.63,2.51-2.32,3.45c-1.5,0.7-3.05,1.36-4.641,1.97c-0.049,0.79,0.331,1.47,1.121,2.04c0.33,1.82,0.279,4.03-0.141,6.61  c1.45-0.61,2.95-1.11,4.5-1.48c1.08-0.19,2.02,0.3,2.81,1.48c1.271,0.56,2.23,1.57,2.891,3.02c0.319,0.94,0.109,1.92-0.641,2.95  c-0.89,0.8-2.109,1.34-3.649,1.62c-2.63,0.33-4.67,0.82-6.12,1.48c-0.23,7.12-0.66,14.2-1.26,21.23  c-0.19,2.34-0.78,3.909-1.761,4.709c-0.939,0.94-1.319,2.021-1.129,3.241L462.41,77.37z M432.529,47.63  c-2.489,0.89-4.669,1.68-6.539,2.39c0,2.34,0.26,4.5,0.77,6.47c1.27-0.75,2.601-1.39,4.01-1.9  C431.279,52.15,431.87,49.83,432.529,47.63z M438.36,17.88c2.159-0.18,3.609,0.54,4.359,2.18c0.28,0.71,0.31,1.48,0.07,2.32  c2.35-1.26,4.88-2.43,7.6-3.51c1.5-0.52,2.64,0.07,3.44,1.76c0.38,1.03,0.59,2.11,0.63,3.23c-0.09,1.45-1.07,2.09-2.95,1.9  c-1.17,0.05-2.08,0.21-2.74,0.49c-2.49,0.52-5.13,0.85-7.95,0.99c-1.069,0.04-2.319,0.25-3.72,0.63c0.23-0.94,0.91-1.88,2.04-2.81  c-1.04-0.05-2,0.09-2.89,0.42c-3.65,5.2-6.86,10.83-9.63,16.87c2.25-0.79,4.479-1.43,6.68-1.9c1.78-0.18,3.24,0.05,4.36,0.71  c-0.23-1.69,0.159-2.96,1.2-3.8c1.26-1.08,2.689-1.97,4.279-2.67c0.19-0.94,0.57-2.13,1.13-3.59c0.37-1.17,1.17-1.76,2.391-1.76  c1.779,0.19,2.74,1.18,2.88,2.96c1.739-0.33,3.26-0.26,4.57,0.21c0.609,0.89,0.54,2.25-0.21,4.08c-1.03,1.69-2.95,3.42-5.761,5.2  c-0.47,1.69-0.89,3.42-1.27,5.2c-1.03,4.88-2.06,9.92-3.091,15.12c-1.319,1.17-2.319,2.84-3.029,4.99  c-0.75-0.471-1.07-1.261-0.98-2.391c1.08-6.7,2.091-13.73,3.021-21.09c-1.31,0.19-2.41,0.12-3.3-0.21  c-0.471,1.59-0.891,3.86-1.271,6.82c-0.18,1.31-0.04,2.55,0.42,3.72c0.471,1.69-0.14,3.14-1.82,4.36  c-1.64,0.89-3.68,1.55-6.119,1.97c-2.061,0.47-3.311,1.479-3.73,3.03c-0.65,2.25-1.68,2.62-3.09,1.12  c-2.58-2.58-4.29-5.98-5.13-10.19c-1.46,1.59-3,3.3-4.64,5.13c-1.271,1.12-1.62,0.77-1.061-1.06c1.69-3.75,3.21-7.5,4.57-11.25  c0.56-3.09,1.64-5.25,3.24-6.47c1.069-3.56,2.829-7.87,5.27-12.93c-2.061,0.14-3.45-0.54-4.149-2.04c-0.28-0.99-0.451-1.9-0.49-2.74  c0-1.74,0.939-2.82,2.81-3.24C429.029,18.7,433.72,18.12,438.36,17.88z"></path>
<path fill-rule="evenodd" clip-rule="evenodd" d="M534.689,19.71c-0.189-1.08,0.33-2.18,1.551-3.3c0.51-0.42,1.779-0.54,3.8-0.35  c1.819,0.18,2.85,1.61,3.09,4.28c-0.521,15.1-0.66,31.13-0.42,48.1c-0.101,1.03-0.351,1.921-0.78,2.671  c-0.65,1.64-1.75,2.649-3.3,3.02c-2.11,2.301-3.351,2.351-3.729,0.15c-0.23-1.88-0.23-3.47,0-4.79L534.689,19.71z M524.14,28.71  c0.14-1.87,0.82-2.95,2.04-3.23c0.28-0.05,0.68-0.33,1.2-0.85c1.22-0.56,2.25-0.49,3.09,0.21c0.71,0.71,0.92,2.23,0.64,4.58  c-0.85,10.59-1.34,21.35-1.479,32.27c-1.271,0.891-2.3,1.9-3.09,3.021c-1.65,1.83-2.58,1.03-2.82-2.391L524.14,28.71z M514.79,24.84  c0.989-0.89,1.6-2.06,1.83-3.51c0.19-0.7,0.75-1.1,1.69-1.2c1.829,0.24,2.859,1.04,3.09,2.4c0.05,14.57-1.9,28.56-5.831,41.97  c-0.75,2.16-1.949,3.351-3.589,3.59c-1.08,0.141-1.381-1.29-0.911-4.29c2.721-12.47,4-23.81,3.86-34.03L514.79,24.84z M505.51,44.11  c0.52,1.97,0.24,3.21-0.84,3.73c-3,1.26-6.12,2.67-9.351,4.22c-1.18,0.42-1.88-0.17-2.109-1.76c-0.33-1.13,0.16-2.16,1.47-3.1  c2.16-1.45,4.71-2.81,7.67-4.07C504.13,42.47,505.18,42.8,505.51,44.11z M505.58,36.66c0.279,1.4-0.07,2.41-1.051,3.02l-7.81,4.36  c-2.11,1.13-3.37,0.87-3.79-0.77c-0.24-0.8-0.31-1.67-0.22-2.6c0-0.8,0.68-1.62,2.04-2.47c2.35-1.26,4.74-2.32,7.18-3.16  C503.85,34.34,505.069,34.88,505.58,36.66z M498.76,65.561c1.08-0.521,2.04-1.08,2.88-1.69c0.8-1.74,1.08-3.47,0.851-5.2  c-4.131,2.1-6.7,3.77-7.74,4.99C496.109,65.34,497.45,65.98,498.76,65.561z M502.14,52.76c0.561-1.78,1.82-2.46,3.79-2.04  c1.5,0.37,2.39,1.1,2.68,2.18c0.42,1.5,0.091,2.7-0.989,3.59c-0.091,1.4-0.14,2.71-0.14,3.93c1.22,0.1,1.92,0.75,2.109,1.97  c0.42,2.021-0.279,3.591-2.109,4.711c-2.44,1.6-4.92,3-7.451,4.219c0.181,0.94,0.181,1.95,0,3.021c-1.129,0.66-2.18,0.471-3.17-0.56  c-3.699-3.7-7.17-7.47-10.399-11.32c-0.851-1.029-1.06-2.32-0.641-3.87c0.141-0.7,0.78-1.4,1.9-2.1c1.22-0.47,2.82-0.29,4.78,0.56  L502.14,52.76z M496.72,26.04c-0.93-1.73-1.87-3.8-2.81-6.19c-0.37-1.08-0.19-2.15,0.56-3.23c0.94-1.41,2.28-1.69,4.011-0.84  c2.72,1.73,5.159,4.28,7.31,7.66c0.71,0.8,1.36,1.78,1.97,2.95c0.56,1.55,0.02,2.81-1.62,3.8c-5.2,2.76-10.71,5.3-16.52,7.59  c-1.78,0.66-2.98,0.24-3.58-1.26c-0.71-1.88-0.431-3.38,0.84-4.5c1.64-1.32,3.681-2.6,6.12-3.87L496.72,26.04z"></path>
<path fill-rule="evenodd" clip-rule="evenodd" d="M608.59,42.14c0.8,1.08,0.561,2.06-0.7,2.95c-3.14,1.88-5.53,3.73-7.18,5.56  c3.71,0.56,5.33,1.76,4.859,3.59c-0.85,1.92-2.14,3.3-3.869,4.14c-0.47,6.051-0.101,9.17,1.119,9.36  c5.351,0.61,9.801,0.09,13.36-1.551c-0.04-2.06,0.26-4.009,0.92-5.839c0.61-1.591,1.051-1.681,1.33-0.281  c0.051,1.601,0.21,3.311,0.5,5.131c1.5-0.37,2.69,0.17,3.58,1.619c0.94,2.2,0.45,4.101-1.47,5.7c-1.971,1.36-5.49,2.181-10.55,2.461  c-8.11,0.33-12.73-1.17-13.851-4.5c-1.18-4.08-0.71-9.75,1.4-17.021c-3.75,3.94-7.761,7.03-12.021,9.28  c-2.859,1.74-5.18,3.779-6.959,6.12c-0.991,1.13-1.881,1.76-2.671,1.899c-1.739,0.421-1.85-0.31-0.35-2.18  c1.96-2.53,3.79-5.18,5.479-7.95c1.55-2.39,4.05-4.96,7.521-7.73c-1.261-0.05-2.95,0.28-5.06,0.98  c-0.661,0.19-1.311-0.44-1.971-1.89c-1.4-2.77-0.8-4.41,1.83-4.93c6.561-1.22,12.68-3.04,18.35-5.48  C605.24,40.08,607.37,40.27,608.59,42.14z M593.54,18.38c-0.75-2.02-0.28-3.12,1.41-3.31c3.42-0.05,6.02,1.24,7.8,3.87  c0.66,1.22,1.01,2.53,1.061,3.94c2.759-0.38,5.459-0.73,8.079-1.06c1.69-0.51,3.171-0.16,4.43,1.06c0.141,1.54,0.661,3,1.551,4.36  c1.64,2.67,0.94,4.05-2.11,4.14c-3.65-0.32-7.05,0.21-10.19,1.62c0.471,2.44-0.069,4.22-1.619,5.34c-3,1.69-6,2.75-9,3.17  c-2.11,0.56-3.8-0.35-5.061-2.74c-0.75-1.46,0-2.67,2.25-3.66c3.47-1.31,6.841-2.48,10.12-3.52c1.08-0.32,2.09-0.06,3.03,0.78  c1.819-2.39,3.84-4.38,6.04-5.98c-2.44,0.61-4.801,0.87-7.1,0.78c-1.08,1.4-2.23,2.22-3.44,2.46c-1.32,0.14-1.95-0.47-1.9-1.83  c-5.35,0.37-9.31,2.04-11.89,4.99c-0.931,1.45-0.79,2.95,0.43,4.5c-0.29,1.03-1.199,2.09-2.75,3.16c-1.64,1.32-2.67,1.27-3.09-0.14  c-1.5-6.04-1.57-10.85-0.21-14.41c0.75-2.11,2.649-2.23,5.689-0.35c3.19-0.52,6.521-0.85,9.991-0.99  C595.84,22.97,594.67,20.91,593.54,18.38z M576.811,21.19c1.219-2.44,2.439-3.24,3.649-2.39c1.41,1.08,1.88,2.53,1.41,4.36  c-0.56,1.64-1.45,3.04-2.67,4.22c-3.24,2.9-5.79,5.9-7.66,9c-0.75,0.98-1.11,1.26-1.06,0.84c0.56-4.88,1.869-9.35,3.939-13.43  c-1.55-0.05-2.79,0.8-3.73,2.53c-0.84,1.31-1.379,2.58-1.62,3.8c-0.509,2.11-0.839,4.05-0.979,5.83  c-0.42,4.41-0.561,8.86-0.42,13.36c4.83-1.17,7.24-3.21,7.24-6.11c-0.19-2.11-0.521-4.32-0.98-6.61c-1.41-0.14-1.67-0.85-0.779-2.11  c0.52-0.8,1.41-1.46,2.669-1.97c0.991-0.38,1.741,0.07,2.25,1.33c2.021,8.07,1.86,13.36-0.489,15.9c-1.45,1.54-3.16,2.6-5.13,3.16  c-0.75,1.73-1.62,1.8-2.601,0.21c-0.609-0.94-1.34-1.76-2.18-2.46c0.04,5.58,0.439,11.531,1.189,17.86  c0.051,1.221-0.159,2.65-0.629,4.29c-0.891,2.44-1.78,3.23-2.67,2.39c-2.301-2.72-3.561-6.069-3.801-10.06  c-0.75-12.09-0.37-23.9,1.13-35.43c0.23-3.57,1.311-6.94,3.23-10.13c1.88-2.53,3.96-2.58,6.26-0.14c0.51,0.89,1.59,1.48,3.229,1.76  H576.811z"></path>
<polygon fill-rule="evenodd" clip-rule="evenodd" points="141.46,112.28 141.46,94.86 136.37,94.86 136.37,91.319 150.01,91.319   150.01,94.86 144.92,94.86 144.92,112.28 "></polygon>
<path fill-rule="evenodd" clip-rule="evenodd" d="M159.09,104.96c-0.42,0.17-1.08,0.37-1.97,0.601c-1.02,0.27-1.69,0.569-2.01,0.899  c-0.31,0.32-0.47,0.74-0.47,1.26c0,0.591,0.17,1.08,0.52,1.47c0.35,0.4,0.79,0.601,1.32,0.601c0.46,0,0.93-0.16,1.39-0.479  c0.46-0.32,0.78-0.7,0.95-1.141c0.18-0.439,0.27-1.239,0.27-2.4V104.96z M154.7,101.71l-2.99-0.609c0.36-1.561,0.96-2.67,1.79-3.351  s2.03-1.02,3.59-1.02c1.39,0,2.45,0.2,3.18,0.589c0.73,0.391,1.25,0.921,1.57,1.601c0.31,0.67,0.47,1.891,0.47,3.67l-0.03,4.69  c0,1.32,0.05,2.3,0.16,2.95c0.1,0.64,0.29,1.319,0.57,2.05h-3.25l-0.43-1.66c-0.56,0.67-1.16,1.17-1.81,1.51  c-0.64,0.33-1.33,0.5-2.05,0.5c-1.22,0-2.21-0.41-2.98-1.22c-0.77-0.82-1.16-1.91-1.16-3.261c0-0.859,0.16-1.619,0.47-2.26  c0.32-0.64,0.76-1.149,1.34-1.529c0.57-0.38,1.49-0.721,2.75-1.021c1.53-0.35,2.6-0.68,3.2-0.989c0-0.841-0.06-1.391-0.18-1.65  c-0.12-0.261-0.34-0.48-0.66-0.64c-0.31-0.171-0.76-0.25-1.34-0.25c-0.59,0-1.06,0.129-1.39,0.399  C155.18,100.47,154.91,100.98,154.7,101.71z"></path>
<path fill-rule="evenodd" clip-rule="evenodd" d="M165.65,112.28v-15.2h3.31v15.2H165.65z M165.65,95.03v-3.711h3.31v3.711H165.65z"></path>
<polygon fill-rule="evenodd" clip-rule="evenodd" points="174.69,112.28 170.76,97.08 173.96,97.08 176.28,107.04 178.44,97.08   181.59,97.08 183.65,107.04 186.05,97.08 189.29,97.08 185.3,112.28 182.11,112.28 179.99,102.51 177.87,112.28 "></polygon>
<path fill-rule="evenodd" clip-rule="evenodd" d="M197.97,104.96c-0.42,0.17-1.08,0.37-1.97,0.601c-1.02,0.27-1.69,0.569-2.01,0.899  c-0.31,0.32-0.47,0.74-0.47,1.26c0,0.591,0.17,1.08,0.52,1.47c0.35,0.4,0.79,0.601,1.32,0.601c0.46,0,0.93-0.16,1.39-0.479  c0.46-0.32,0.78-0.7,0.95-1.141c0.18-0.439,0.27-1.239,0.27-2.4V104.96z M193.58,101.71l-2.99-0.609  c0.36-1.561,0.96-2.67,1.79-3.351s2.03-1.02,3.59-1.02c1.39,0,2.45,0.2,3.18,0.589c0.73,0.391,1.25,0.921,1.57,1.601  c0.31,0.67,0.47,1.891,0.47,3.67l-0.03,4.69c0,1.32,0.05,2.3,0.16,2.95c0.1,0.64,0.29,1.319,0.57,2.05h-3.25l-0.43-1.66  c-0.56,0.67-1.16,1.17-1.81,1.51c-0.64,0.33-1.33,0.5-2.05,0.5c-1.22,0-2.21-0.41-2.98-1.22c-0.77-0.82-1.16-1.91-1.16-3.261  c0-0.859,0.16-1.619,0.47-2.26c0.32-0.64,0.76-1.149,1.34-1.529c0.57-0.38,1.49-0.721,2.75-1.021c1.53-0.35,2.6-0.68,3.2-0.989  c0-0.841-0.06-1.391-0.18-1.65c-0.12-0.261-0.34-0.48-0.66-0.64c-0.31-0.171-0.76-0.25-1.34-0.25c-0.59,0-1.06,0.129-1.39,0.399  C194.06,100.47,193.79,100.98,193.58,101.71z"></path>
<path fill-rule="evenodd" clip-rule="evenodd" d="M215.83,112.28h-3.31v-7.761c0-1.56-0.06-2.589-0.18-3.109  c-0.13-0.511-0.36-0.91-0.7-1.19c-0.34-0.27-0.72-0.409-1.15-0.409c-0.55,0-1.05,0.18-1.5,0.529c-0.45,0.36-0.76,0.86-0.94,1.49  c-0.18,0.63-0.27,1.81-0.27,3.56v6.891h-3.31v-15.2h3.07v2.23c0.55-0.86,1.16-1.511,1.84-1.931c0.68-0.43,1.44-0.649,2.26-0.649  c0.97,0,1.78,0.25,2.44,0.75c0.66,0.51,1.12,1.149,1.37,1.939c0.25,0.78,0.38,1.92,0.38,3.41V112.28z"></path>
<path fill-rule="evenodd" clip-rule="evenodd" d="M235.05,103.99l-2.38-7.78l-2.34,7.78H235.05z M241.41,112.28h-3.76l-1.47-4.74  h-6.91l-1.42,4.74h-3.69l6.68-20.961h3.7L241.41,112.28z"></path>
<path fill-rule="evenodd" clip-rule="evenodd" d="M254.03,101.59l-3.25,0.71c-0.24-1.61-0.99-2.41-2.26-2.41  c-0.81,0-1.47,0.351-1.97,1.041c-0.5,0.68-0.75,1.839-0.75,3.479c0,1.8,0.25,3.08,0.75,3.82c0.49,0.75,1.16,1.12,1.99,1.12  c0.62,0,1.13-0.211,1.53-0.641c0.4-0.42,0.69-1.18,0.86-2.26l3.25,0.68c-0.67,3.67-2.59,5.5-5.76,5.5c-2.03,0-3.53-0.77-4.51-2.319  c-0.98-1.551-1.47-3.411-1.47-5.591c0-2.6,0.55-4.59,1.66-5.95c1.11-1.359,2.57-2.039,4.38-2.039c1.46,0,2.65,0.39,3.57,1.169  C252.97,98.67,253.63,99.91,254.03,101.59z"></path>
<path fill-rule="evenodd" clip-rule="evenodd" d="M263.49,104.96c-0.42,0.17-1.08,0.37-1.97,0.601c-1.02,0.27-1.69,0.569-2.01,0.899  c-0.31,0.32-0.47,0.74-0.47,1.26c0,0.591,0.17,1.08,0.52,1.47c0.35,0.4,0.79,0.601,1.32,0.601c0.46,0,0.93-0.16,1.39-0.479  c0.46-0.32,0.78-0.7,0.95-1.141c0.18-0.439,0.27-1.239,0.27-2.4V104.96z M259.1,101.71l-2.99-0.609c0.36-1.561,0.96-2.67,1.79-3.351  s2.03-1.02,3.59-1.02c1.39,0,2.45,0.2,3.18,0.589c0.73,0.391,1.25,0.921,1.57,1.601c0.31,0.67,0.47,1.891,0.47,3.67l-0.03,4.69  c0,1.32,0.05,2.3,0.16,2.95c0.1,0.64,0.29,1.319,0.57,2.05h-3.25l-0.43-1.66c-0.56,0.67-1.16,1.17-1.81,1.51  c-0.64,0.33-1.33,0.5-2.05,0.5c-1.22,0-2.21-0.41-2.98-1.22c-0.77-0.82-1.16-1.91-1.16-3.261c0-0.859,0.16-1.619,0.47-2.26  c0.32-0.64,0.76-1.149,1.34-1.529c0.57-0.38,1.49-0.721,2.75-1.021c1.53-0.35,2.6-0.68,3.2-0.989c0-0.841-0.06-1.391-0.18-1.65  c-0.12-0.261-0.34-0.48-0.66-0.64c-0.31-0.171-0.76-0.25-1.34-0.25c-0.59,0-1.06,0.129-1.39,0.399  C259.58,100.47,259.31,100.98,259.1,101.71z"></path>
<path fill-rule="evenodd" clip-rule="evenodd" d="M272.68,104.36c0,1.38,0.12,2.399,0.35,3.079c0.23,0.671,0.57,1.181,1,1.521  c0.43,0.34,0.92,0.51,1.46,0.51c0.72,0,1.35-0.39,1.88-1.18c0.54-0.78,0.8-1.971,0.8-3.54c0-1.76-0.26-3.02-0.77-3.79  c-0.52-0.771-1.18-1.149-1.98-1.149c-0.76,0-1.41,0.37-1.94,1.129C272.95,101.7,272.68,102.84,272.68,104.36z M281.47,112.28h-3.08  v-2.23c-0.5,0.86-1.1,1.5-1.78,1.931c-0.69,0.439-1.39,0.649-2.11,0.649c-1.39,0-2.6-0.69-3.64-2.08  c-1.03-1.39-1.54-3.38-1.54-5.949c0-2.601,0.5-4.561,1.51-5.881c1.01-1.33,2.25-1.989,3.72-1.989c0.69,0,1.34,0.18,1.95,0.529  c0.6,0.351,1.15,0.88,1.66,1.591v-7.531h3.31V112.28z"></path>
<path fill-rule="evenodd" clip-rule="evenodd" d="M292.1,103.38c-0.03-1.19-0.29-2.08-0.77-2.68c-0.47-0.59-1.04-0.89-1.7-0.89  c-0.7,0-1.29,0.31-1.77,0.93c-0.48,0.63-0.72,1.51-0.71,2.64H292.1z M291.92,107.45l3.28,0.67c-0.44,1.529-1.12,2.66-2.05,3.399  c-0.93,0.74-2.05,1.11-3.38,1.11c-1.85,0-3.27-0.61-4.27-1.85c-1.19-1.43-1.78-3.43-1.78-6.011c0-2.539,0.6-4.58,1.79-6.1  c1.01-1.29,2.31-1.939,3.92-1.939c1.78,0,3.18,0.659,4.19,1.979c1.16,1.51,1.74,3.729,1.74,6.67l-0.01,0.46h-8.26  c0.02,1.2,0.29,2.13,0.81,2.79s1.15,0.99,1.89,0.99C290.86,109.62,291.56,108.89,291.92,107.45z"></path>
<path fill-rule="evenodd" clip-rule="evenodd" d="M297.86,97.08h3.079v2.08c0.541-0.81,1.141-1.42,1.791-1.82  c0.64-0.409,1.339-0.609,2.1-0.609c0.8,0,1.489,0.2,2.08,0.6c0.58,0.4,1.06,1.01,1.43,1.819c0.561-0.81,1.15-1.419,1.78-1.819  c0.64-0.399,1.311-0.6,2.03-0.6c0.85,0,1.58,0.209,2.189,0.609c0.62,0.41,1.08,0.99,1.4,1.74s0.479,1.91,0.479,3.48v9.72h-3.31  v-8.69c0-1.521-0.131-2.529-0.4-3.029s-0.72-0.75-1.35-0.75c-0.74,0-1.341,0.35-1.79,1.05c-0.45,0.7-0.67,2.07-0.67,4.12v7.3h-3.311  v-8.33c0-1.66-0.09-2.72-0.27-3.2c-0.24-0.63-0.72-0.939-1.45-0.939c-0.48,0-0.93,0.159-1.34,0.479c-0.41,0.33-0.7,0.8-0.891,1.43  c-0.18,0.62-0.27,1.68-0.27,3.17v7.391h-3.31V97.08z"></path>
<path fill-rule="evenodd" clip-rule="evenodd" d="M317.91,97.08h3.51l2.98,10.81l2.899-10.81h3.4l-4.381,14.63l-0.839,2.84  c-0.381,1.06-0.75,1.841-1.11,2.341c-0.37,0.489-0.841,0.869-1.41,1.14c-0.57,0.27-1.26,0.4-2.09,0.4c-0.64,0-1.271-0.08-1.88-0.241  l-0.29-3.129c0.51,0.12,0.98,0.18,1.39,0.18c0.63,0,1.15-0.21,1.561-0.63c0.41-0.41,0.739-1.171,1.01-2.271L317.91,97.08z"></path>
<path fill-rule="evenodd" clip-rule="evenodd" d="M342.22,104.681c0,1.539,0.31,2.699,0.91,3.489s1.33,1.181,2.181,1.181  c0.84,0,1.55-0.391,2.14-1.19c0.6-0.79,0.89-1.96,0.89-3.511c0-1.51-0.3-2.659-0.9-3.449c-0.6-0.79-1.329-1.19-2.17-1.19  c-0.83,0-1.55,0.4-2.149,1.19C342.52,101.99,342.22,103.149,342.22,104.681z M338.86,104.47c0-1.489,0.29-2.85,0.88-4.07  c0.59-1.219,1.37-2.14,2.32-2.75c0.949-0.609,2.029-0.919,3.219-0.919c2,0,3.57,0.789,4.721,2.359c1.14,1.57,1.71,3.4,1.71,5.511  c0,1.56-0.3,2.979-0.891,4.239c-0.6,1.261-1.38,2.2-2.35,2.841c-0.97,0.63-2.03,0.949-3.18,0.949c-1.851,0-3.38-0.71-4.601-2.12  C339.47,109.101,338.86,107.08,338.86,104.47z"></path>
<path fill-rule="evenodd" clip-rule="evenodd" d="M352.85,97.08h1.851v-1.141c0-1.379,0.13-2.37,0.39-2.989  c0.26-0.62,0.68-1.11,1.271-1.46c0.579-0.351,1.3-0.53,2.159-0.53c0.931,0,1.841,0.18,2.74,0.521l-0.43,2.789  c-0.53-0.159-1.03-0.229-1.511-0.229c-0.459,0-0.8,0.13-1,0.399c-0.209,0.271-0.31,0.791-0.31,1.57v1.07h2.46v3.17h-2.46v12.03  h-3.31v-12.03h-1.851V97.08z"></path>
<path fill-rule="evenodd" clip-rule="evenodd" d="M372.41,103.14v5.601h3.229c1.421,0,2.33-0.08,2.73-0.221  c0.399-0.149,0.74-0.439,1.01-0.87c0.271-0.439,0.41-0.989,0.41-1.649c0-0.689-0.15-1.25-0.44-1.689  c-0.289-0.45-0.68-0.75-1.16-0.921c-0.479-0.159-1.47-0.25-2.959-0.25H372.41z M372.41,94.8v4.86h2.3c1.39,0,2.24-0.021,2.569-0.07  c0.591-0.1,1.061-0.35,1.391-0.75c0.34-0.409,0.51-0.96,0.51-1.659c0-0.62-0.14-1.131-0.41-1.511c-0.279-0.39-0.609-0.63-1-0.73  c-0.39-0.089-1.5-0.14-3.34-0.14H372.41z M368.96,91.319h6.89c1.881,0,3.211,0.171,3.97,0.511c0.761,0.34,1.411,0.95,1.931,1.819  c0.529,0.87,0.79,1.851,0.79,2.951c0,1.01-0.221,1.919-0.67,2.739c-0.45,0.81-1.03,1.41-1.74,1.81c1.01,0.36,1.8,0.98,2.38,1.851  c0.57,0.88,0.851,1.95,0.851,3.21c0,1.521-0.36,2.81-1.101,3.859c-0.73,1.051-1.6,1.7-2.6,1.95c-0.7,0.17-2.32,0.261-4.85,0.261  h-5.851V91.319z"></path>
<path fill-rule="evenodd" clip-rule="evenodd" d="M393.09,104.96c-0.42,0.17-1.08,0.37-1.97,0.601  c-1.021,0.27-1.69,0.569-2.01,0.899c-0.311,0.32-0.471,0.74-0.471,1.26c0,0.591,0.171,1.08,0.521,1.47  c0.35,0.4,0.79,0.601,1.32,0.601c0.459,0,0.93-0.16,1.39-0.479c0.46-0.32,0.78-0.7,0.949-1.141c0.181-0.439,0.271-1.239,0.271-2.4  V104.96z M388.7,101.71l-2.99-0.609c0.359-1.561,0.96-2.67,1.79-3.351s2.029-1.02,3.59-1.02c1.391,0,2.45,0.2,3.18,0.589  c0.73,0.391,1.25,0.921,1.57,1.601c0.311,0.67,0.471,1.891,0.471,3.67l-0.031,4.69c0,1.32,0.051,2.3,0.16,2.95  c0.101,0.64,0.291,1.319,0.57,2.05h-3.25l-0.43-1.66c-0.561,0.67-1.16,1.17-1.811,1.51c-0.64,0.33-1.33,0.5-2.05,0.5  c-1.22,0-2.21-0.41-2.979-1.22c-0.771-0.82-1.16-1.91-1.16-3.261c0-0.859,0.16-1.619,0.47-2.26c0.32-0.64,0.761-1.149,1.34-1.529  c0.57-0.38,1.49-0.721,2.75-1.021c1.53-0.35,2.601-0.68,3.2-0.989c0-0.841-0.061-1.391-0.18-1.65c-0.12-0.261-0.341-0.48-0.66-0.64  c-0.311-0.171-0.76-0.25-1.34-0.25c-0.591,0-1.061,0.129-1.391,0.399C389.18,100.47,388.91,100.98,388.7,101.71z"></path>
<path fill-rule="evenodd" clip-rule="evenodd" d="M410.95,112.28h-3.311v-7.761c0-1.56-0.06-2.589-0.18-3.109  c-0.13-0.511-0.36-0.91-0.7-1.19c-0.34-0.27-0.72-0.409-1.149-0.409c-0.55,0-1.05,0.18-1.5,0.529c-0.45,0.36-0.761,0.86-0.94,1.49  s-0.27,1.81-0.27,3.56v6.891h-3.311v-15.2h3.07v2.23c0.55-0.86,1.159-1.511,1.84-1.931c0.68-0.43,1.439-0.649,2.26-0.649  c0.971,0,1.78,0.25,2.44,0.75c0.66,0.51,1.119,1.149,1.369,1.939c0.25,0.78,0.381,1.92,0.381,3.41V112.28z"></path>
<polygon fill-rule="evenodd" clip-rule="evenodd" points="414.17,112.28 414.17,91.319 417.48,91.319 417.48,102.41 421.34,97.08   425.4,97.08 421.13,102.649 425.689,112.28 422.16,112.28 418.99,105.45 417.48,107.42 417.48,112.28 "></polygon>
<path fill-rule="evenodd" clip-rule="evenodd" d="M427.73,112.28v-15.2h3.31v15.2H427.73z M427.73,95.03v-3.711h3.31v3.711H427.73z"></path>
<path fill-rule="evenodd" clip-rule="evenodd" d="M445.75,112.28h-3.311v-7.761c0-1.56-0.06-2.589-0.18-3.109  c-0.13-0.511-0.359-0.91-0.699-1.19c-0.341-0.27-0.721-0.409-1.15-0.409c-0.55,0-1.05,0.18-1.5,0.529  c-0.45,0.36-0.76,0.86-0.94,1.49c-0.18,0.63-0.27,1.81-0.27,3.56v6.891h-3.311v-15.2h3.07v2.23c0.55-0.86,1.16-1.511,1.84-1.931  c0.681-0.43,1.44-0.649,2.261-0.649c0.969,0,1.779,0.25,2.439,0.75c0.66,0.51,1.12,1.149,1.37,1.939c0.25,0.78,0.38,1.92,0.38,3.41  V112.28z"></path>
<path fill-rule="evenodd" clip-rule="evenodd" d="M451.72,104.351c0,1.609,0.261,2.789,0.78,3.539c0.52,0.74,1.15,1.11,1.88,1.11  c0.8,0,1.47-0.38,2.04-1.13c0.561-0.75,0.84-1.89,0.84-3.42c0-1.58-0.27-2.75-0.81-3.511c-0.54-0.75-1.2-1.129-1.99-1.129  s-1.44,0.37-1.96,1.109C451.98,101.66,451.72,102.8,451.72,104.351z M448.79,113.28l3.779,0.55c0.061,0.55,0.23,0.939,0.521,1.18  c0.29,0.23,0.75,0.341,1.37,0.341c0.729,0,1.31-0.12,1.76-0.351c0.31-0.181,0.55-0.46,0.72-0.86c0.171-0.399,0.261-1.109,0.261-2.12  v-2.22c-0.5,0.82-1.05,1.44-1.671,1.86c-0.619,0.409-1.31,0.62-2.06,0.62c-1.38,0-2.54-0.631-3.489-1.881  c-1.08-1.43-1.62-3.359-1.62-5.81c0-2.59,0.51-4.55,1.529-5.87c1.03-1.33,2.271-1.989,3.73-1.989c0.78,0,1.479,0.209,2.12,0.62  c0.63,0.409,1.199,1.029,1.689,1.859v-2.13h3.08v13.63c0,2.18-0.199,3.76-0.6,4.75c-0.4,0.979-1.021,1.721-1.85,2.221  c-0.841,0.5-1.991,0.75-3.471,0.75c-1.359,0-2.45-0.181-3.271-0.54c-0.819-0.37-1.439-0.91-1.88-1.62  c-0.43-0.721-0.649-1.551-0.649-2.49V113.28z"></path>
<path fill-rule="evenodd" clip-rule="evenodd" d="M477.33,104.96c-0.42,0.17-1.08,0.37-1.97,0.601  c-1.021,0.27-1.69,0.569-2.011,0.899c-0.31,0.32-0.47,0.74-0.47,1.26c0,0.591,0.17,1.08,0.521,1.47  c0.35,0.4,0.789,0.601,1.319,0.601c0.46,0,0.931-0.16,1.391-0.479c0.459-0.32,0.779-0.7,0.95-1.141c0.18-0.439,0.27-1.239,0.27-2.4  V104.96z M472.939,101.71l-2.989-0.609c0.36-1.561,0.96-2.67,1.79-3.351c0.829-0.681,2.029-1.02,3.59-1.02  c1.39,0,2.449,0.2,3.18,0.589c0.73,0.391,1.25,0.921,1.57,1.601c0.31,0.67,0.47,1.891,0.47,3.67l-0.03,4.69  c0,1.32,0.05,2.3,0.16,2.95c0.1,0.64,0.29,1.319,0.57,2.05H478l-0.431-1.66c-0.56,0.67-1.159,1.17-1.81,1.51  c-0.64,0.33-1.33,0.5-2.05,0.5c-1.22,0-2.21-0.41-2.979-1.22c-0.771-0.82-1.161-1.91-1.161-3.261c0-0.859,0.161-1.619,0.471-2.26  c0.32-0.64,0.76-1.149,1.34-1.529c0.57-0.38,1.49-0.721,2.75-1.021c1.53-0.35,2.601-0.68,3.2-0.989c0-0.841-0.061-1.391-0.18-1.65  c-0.121-0.261-0.34-0.48-0.66-0.64c-0.311-0.171-0.76-0.25-1.34-0.25c-0.59,0-1.061,0.129-1.391,0.399  C473.42,100.47,473.15,100.98,472.939,101.71z"></path>
<path fill-rule="evenodd" clip-rule="evenodd" d="M495.189,112.28h-3.31v-7.761c0-1.56-0.061-2.589-0.18-3.109  c-0.131-0.511-0.36-0.91-0.7-1.19c-0.34-0.27-0.721-0.409-1.15-0.409c-0.55,0-1.05,0.18-1.5,0.529c-0.449,0.36-0.76,0.86-0.939,1.49  s-0.271,1.81-0.271,3.56v6.891h-3.31v-15.2h3.07v2.23c0.55-0.86,1.16-1.511,1.84-1.931c0.68-0.43,1.439-0.649,2.26-0.649  c0.97,0,1.779,0.25,2.439,0.75c0.66,0.51,1.121,1.149,1.371,1.939c0.25,0.78,0.379,1.92,0.379,3.41V112.28z"></path>
<path fill-rule="evenodd" clip-rule="evenodd" d="M501.16,104.36c0,1.38,0.119,2.399,0.35,3.079c0.23,0.671,0.57,1.181,1,1.521  s0.92,0.51,1.46,0.51c0.72,0,1.35-0.39,1.88-1.18c0.54-0.78,0.801-1.971,0.801-3.54c0-1.76-0.261-3.02-0.771-3.79  c-0.521-0.771-1.18-1.149-1.979-1.149c-0.761,0-1.41,0.37-1.94,1.129C501.43,101.7,501.16,102.84,501.16,104.36z M509.95,112.28  h-3.08v-2.23c-0.5,0.86-1.101,1.5-1.78,1.931c-0.689,0.439-1.39,0.649-2.109,0.649c-1.391,0-2.601-0.69-3.641-2.08  c-1.029-1.39-1.54-3.38-1.54-5.949c0-2.601,0.5-4.561,1.511-5.881c1.009-1.33,2.25-1.989,3.719-1.989c0.69,0,1.341,0.18,1.951,0.529  c0.6,0.351,1.149,0.88,1.659,1.591v-7.531h3.311V112.28z"></path>
<polygon fill-rule="evenodd" clip-rule="evenodd" points="519.95,112.28 519.95,91.319 531.72,91.319 531.72,94.86 523.4,94.86   523.4,99.84 530.6,99.84 530.6,103.38 523.4,103.38 523.4,112.28 "></polygon>
<path fill-rule="evenodd" clip-rule="evenodd" d="M534.529,112.28v-15.2h3.311v15.2H534.529z M534.529,95.03v-3.711h3.311v3.711  H534.529z"></path>
<path fill-rule="evenodd" clip-rule="evenodd" d="M552.55,112.28h-3.31v-7.761c0-1.56-0.061-2.589-0.18-3.109  c-0.131-0.511-0.36-0.91-0.701-1.19c-0.34-0.27-0.72-0.409-1.149-0.409c-0.55,0-1.05,0.18-1.5,0.529c-0.45,0.36-0.76,0.86-0.94,1.49  c-0.18,0.63-0.27,1.81-0.27,3.56v6.891h-3.311v-15.2h3.07v2.23c0.551-0.86,1.16-1.511,1.84-1.931c0.68-0.43,1.44-0.649,2.26-0.649  c0.971,0,1.78,0.25,2.44,0.75c0.66,0.51,1.12,1.149,1.37,1.939c0.25,0.78,0.38,1.92,0.38,3.41V112.28z"></path>
<path fill-rule="evenodd" clip-rule="evenodd" d="M562.77,104.96c-0.42,0.17-1.08,0.37-1.97,0.601  c-1.021,0.27-1.69,0.569-2.01,0.899c-0.31,0.32-0.471,0.74-0.471,1.26c0,0.591,0.171,1.08,0.521,1.47  c0.35,0.4,0.79,0.601,1.32,0.601c0.46,0,0.93-0.16,1.39-0.479c0.46-0.32,0.78-0.7,0.95-1.141c0.18-0.439,0.27-1.239,0.27-2.4V104.96  z M558.38,101.71l-2.99-0.609c0.36-1.561,0.96-2.67,1.79-3.351s2.03-1.02,3.59-1.02c1.391,0,2.45,0.2,3.181,0.589  c0.729,0.391,1.25,0.921,1.569,1.601c0.311,0.67,0.471,1.891,0.471,3.67l-0.03,4.69c0,1.32,0.05,2.3,0.16,2.95  c0.1,0.64,0.29,1.319,0.569,2.05h-3.25l-0.43-1.66c-0.56,0.67-1.16,1.17-1.81,1.51c-0.64,0.33-1.33,0.5-2.05,0.5  c-1.221,0-2.211-0.41-2.98-1.22c-0.77-0.82-1.16-1.91-1.16-3.261c0-0.859,0.16-1.619,0.471-2.26c0.319-0.64,0.76-1.149,1.339-1.529  c0.57-0.38,1.491-0.721,2.75-1.021c1.53-0.35,2.601-0.68,3.2-0.989c0-0.841-0.06-1.391-0.18-1.65c-0.12-0.261-0.34-0.48-0.66-0.64  c-0.31-0.171-0.76-0.25-1.34-0.25c-0.59,0-1.061,0.129-1.39,0.399C558.859,100.47,558.59,100.98,558.38,101.71z"></path>
<path fill-rule="evenodd" clip-rule="evenodd" d="M580.63,112.28h-3.311v-7.761c0-1.56-0.06-2.589-0.18-3.109  c-0.13-0.511-0.36-0.91-0.7-1.19c-0.34-0.27-0.72-0.409-1.149-0.409c-0.55,0-1.05,0.18-1.5,0.529c-0.45,0.36-0.761,0.86-0.94,1.49  s-0.27,1.81-0.27,3.56v6.891h-3.311v-15.2h3.07v2.23c0.55-0.86,1.16-1.511,1.84-1.931c0.68-0.43,1.44-0.649,2.26-0.649  c0.971,0,1.78,0.25,2.44,0.75c0.66,0.51,1.12,1.149,1.37,1.939c0.25,0.78,0.38,1.92,0.38,3.41V112.28z"></path>
<path fill-rule="evenodd" clip-rule="evenodd" d="M594.83,101.59l-3.25,0.71c-0.24-1.61-0.99-2.41-2.261-2.41  c-0.81,0-1.47,0.351-1.97,1.041c-0.5,0.68-0.75,1.839-0.75,3.479c0,1.8,0.25,3.08,0.75,3.82c0.49,0.75,1.16,1.12,1.99,1.12  c0.62,0,1.13-0.211,1.53-0.641c0.399-0.42,0.69-1.18,0.86-2.26l3.25,0.68c-0.67,3.67-2.591,5.5-5.761,5.5  c-2.03,0-3.53-0.77-4.51-2.319c-0.979-1.551-1.47-3.411-1.47-5.591c0-2.6,0.55-4.59,1.66-5.95c1.109-1.359,2.569-2.039,4.379-2.039  c1.461,0,2.65,0.39,3.57,1.169C593.77,98.67,594.43,99.91,594.83,101.59z"></path>
<path fill-rule="evenodd" clip-rule="evenodd" d="M604.819,103.38c-0.029-1.19-0.29-2.08-0.77-2.68c-0.47-0.59-1.04-0.89-1.7-0.89  c-0.699,0-1.289,0.31-1.77,0.93c-0.48,0.63-0.721,1.51-0.71,2.64H604.819z M604.64,107.45l3.28,0.67  c-0.439,1.529-1.12,2.66-2.05,3.399c-0.931,0.74-2.051,1.11-3.38,1.11c-1.851,0-3.271-0.61-4.271-1.85  c-1.19-1.43-1.78-3.43-1.78-6.011c0-2.539,0.601-4.58,1.791-6.1c1.01-1.29,2.31-1.939,3.92-1.939c1.779,0,3.18,0.659,4.189,1.979  c1.16,1.51,1.74,3.729,1.74,6.67l-0.011,0.46h-8.259c0.02,1.2,0.289,2.13,0.81,2.79c0.52,0.66,1.149,0.99,1.89,0.99  C603.58,109.62,604.279,108.89,604.64,107.45z"></path>
<path fill-rule="evenodd" clip-rule="evenodd" fill="#fff" d="M83.991,88.599l-10.292,8.578h20.585L83.991,88.599z   M38.263,89.252l-10.292,8.576h20.577L38.263,89.252z M60.556,24.396L45.326,49.04h28.808L60.556,24.396z M41.693,54.919  l-12.83,20.763h28.752V54.919H41.693z M64.146,75.682h24.661L77.371,54.919H64.146V75.682z M6,89.903  c0.161,20.602,14.214,29.429,33.157,29.429c0.162,0.321,47.163,0.161,47.532,0.161c13.555,0,31.031-8.505,31.031-29.59  c0-25.014-28.421-84.023-56.512-84.023C30.499,5.88,5.806,65.381,6,89.903z M58.59,20.022c0,0,1.716-1.716,3.601-1.716  c1.876,0,3.551,1.716,3.551,1.716l35.444,59.951h-37.04v18.104h4.084l16.985-14.384l17.477,16.671l1.305,5.396l-84.926,0.162  l1.305-4.736L38.343,85.82l15.593,12.258h3.68V79.974H20.295L58.59,20.022z"></path>
</svg>